%TF.GenerationSoftware,KiCad,Pcbnew,10.0.0*%
%TF.CreationDate,2026-04-08T14:14:58+09:00*%
%TF.ProjectId,syatyozaiseki,73796174-796f-47a6-9169-73656b692e6b,rev?*%
%TF.SameCoordinates,Original*%
%TF.FileFunction,Soldermask,Top*%
%TF.FilePolarity,Negative*%
%FSLAX46Y46*%
G04 Gerber Fmt 4.6, Leading zero omitted, Abs format (unit mm)*
G04 Created by KiCad (PCBNEW 10.0.0) date 2026-04-08 14:14:58*
%MOMM*%
%LPD*%
G01*
G04 APERTURE LIST*
G04 Aperture macros list*
%AMRoundRect*
0 Rectangle with rounded corners*
0 $1 Rounding radius*
0 $2 $3 $4 $5 $6 $7 $8 $9 X,Y pos of 4 corners*
0 Add a 4 corners polygon primitive as box body*
4,1,4,$2,$3,$4,$5,$6,$7,$8,$9,$2,$3,0*
0 Add four circle primitives for the rounded corners*
1,1,$1+$1,$2,$3*
1,1,$1+$1,$4,$5*
1,1,$1+$1,$6,$7*
1,1,$1+$1,$8,$9*
0 Add four rect primitives between the rounded corners*
20,1,$1+$1,$2,$3,$4,$5,0*
20,1,$1+$1,$4,$5,$6,$7,0*
20,1,$1+$1,$6,$7,$8,$9,0*
20,1,$1+$1,$8,$9,$2,$3,0*%
G04 Aperture macros list end*
%ADD10R,1.000000X0.400000*%
%ADD11R,1.400000X0.800000*%
%ADD12R,1.400000X0.400000*%
%ADD13R,0.400000X1.400000*%
%ADD14RoundRect,0.137500X-0.137500X-0.662500X0.137500X-0.662500X0.137500X0.662500X-0.137500X0.662500X0*%
%ADD15RoundRect,0.218750X0.218750X0.256250X-0.218750X0.256250X-0.218750X-0.256250X0.218750X-0.256250X0*%
%ADD16RoundRect,0.225000X-0.225000X-0.250000X0.225000X-0.250000X0.225000X0.250000X-0.225000X0.250000X0*%
%ADD17C,1.000000*%
%ADD18C,1.600200*%
%ADD19C,1.400000*%
%ADD20RoundRect,0.225000X-0.250000X0.225000X-0.250000X-0.225000X0.250000X-0.225000X0.250000X0.225000X0*%
%ADD21C,0.900000*%
%ADD22RoundRect,0.250000X0.375000X1.000000X-0.375000X1.000000X-0.375000X-1.000000X0.375000X-1.000000X0*%
%ADD23C,2.100000*%
%ADD24RoundRect,0.250000X-0.325000X-0.650000X0.325000X-0.650000X0.325000X0.650000X-0.325000X0.650000X0*%
%ADD25RoundRect,0.218750X0.256250X-0.218750X0.256250X0.218750X-0.256250X0.218750X-0.256250X-0.218750X0*%
%ADD26RoundRect,0.225000X0.250000X-0.225000X0.250000X0.225000X-0.250000X0.225000X-0.250000X-0.225000X0*%
%ADD27R,2.400000X0.740000*%
%ADD28RoundRect,0.249999X0.850001X0.850001X-0.850001X0.850001X-0.850001X-0.850001X0.850001X-0.850001X0*%
%ADD29C,2.200000*%
%ADD30R,0.375000X0.350000*%
%ADD31R,0.350000X0.375000*%
%ADD32RoundRect,0.218750X-0.218750X-0.256250X0.218750X-0.256250X0.218750X0.256250X-0.218750X0.256250X0*%
%ADD33RoundRect,0.250000X0.650000X-0.325000X0.650000X0.325000X-0.650000X0.325000X-0.650000X-0.325000X0*%
%ADD34R,1.000000X1.800000*%
%ADD35C,1.219200*%
%ADD36RoundRect,0.087500X0.250000X0.087500X-0.250000X0.087500X-0.250000X-0.087500X0.250000X-0.087500X0*%
G04 APERTURE END LIST*
D10*
%TO.C,U4*%
X159152000Y-99132000D03*
X159152000Y-100532000D03*
D11*
X157452000Y-101082000D03*
D12*
X157452000Y-100182000D03*
X157452000Y-99482000D03*
X157452000Y-98782000D03*
X157452000Y-98082000D03*
X157452000Y-97382000D03*
X157452000Y-96682000D03*
X157452000Y-95982000D03*
X157452000Y-95282000D03*
X157452000Y-94582000D03*
X157452000Y-93882000D03*
X157452000Y-93182000D03*
X157452000Y-92482000D03*
X157452000Y-91782000D03*
X157452000Y-91082000D03*
D13*
X157852000Y-89682000D03*
X158552000Y-89682000D03*
X159252000Y-89682000D03*
X159952000Y-89682000D03*
X160652000Y-89682000D03*
X161352000Y-89682000D03*
X162052000Y-89682000D03*
X162752000Y-89682000D03*
X163452000Y-89682000D03*
X164152000Y-89682000D03*
X164852000Y-89682000D03*
X165552000Y-89682000D03*
X166252000Y-89682000D03*
D12*
X166652000Y-91782000D03*
X166652000Y-92482000D03*
X166652000Y-93182000D03*
X166652000Y-93882000D03*
X166652000Y-94582000D03*
X166652000Y-95282000D03*
X166652000Y-95982000D03*
X166652000Y-96682000D03*
X166652000Y-97382000D03*
X166652000Y-98082000D03*
D11*
X166652000Y-101082000D03*
%TD*%
D14*
%TO.C,L1*%
X130331600Y-71931000D03*
X131781600Y-71931000D03*
%TD*%
D15*
%TO.C,D2*%
X137439500Y-88900000D03*
X135864500Y-88900000D03*
%TD*%
D16*
%TO.C,C10*%
X160455000Y-84344400D03*
X162005000Y-84344400D03*
%TD*%
D17*
%TO.C,TP2*%
X126234600Y-79061000D03*
%TD*%
D18*
%TO.C,CN1*%
X167935600Y-79244400D03*
X165435600Y-79244400D03*
X162935600Y-79244400D03*
X160435600Y-79244400D03*
%TD*%
D19*
%TO.C,R5*%
X150114000Y-84074000D03*
X150114000Y-89154000D03*
%TD*%
D20*
%TO.C,C9*%
X168715000Y-98897000D03*
X168715000Y-100447000D03*
%TD*%
D19*
%TO.C,R6*%
X141224000Y-85852000D03*
X146304000Y-85852000D03*
%TD*%
D18*
%TO.C,J1*%
X163572400Y-69850000D03*
X163572400Y-72350000D03*
%TD*%
D21*
%TO.C,SW1*%
X155800000Y-68072000D03*
X149000000Y-68072000D03*
D22*
X154900000Y-70822000D03*
X152400000Y-70822000D03*
X149900000Y-70822000D03*
%TD*%
D20*
%TO.C,C6*%
X132842000Y-87109000D03*
X132842000Y-88659000D03*
%TD*%
D23*
%TO.C,HL1*%
X169926000Y-68326000D03*
%TD*%
D16*
%TO.C,C5*%
X128244000Y-89154000D03*
X129794000Y-89154000D03*
%TD*%
D15*
%TO.C,D1*%
X137439500Y-86360000D03*
X135864500Y-86360000D03*
%TD*%
D24*
%TO.C,C1*%
X133246600Y-75944200D03*
X136196600Y-75944200D03*
%TD*%
D25*
%TO.C,L2*%
X168715000Y-93259900D03*
X168715000Y-91684900D03*
%TD*%
D26*
%TO.C,C12*%
X128233000Y-75264000D03*
X128233000Y-73714000D03*
%TD*%
D27*
%TO.C,J2*%
X127926000Y-91948000D03*
X131826000Y-91948000D03*
X127926000Y-93218000D03*
X131826000Y-93218000D03*
X127926000Y-94488000D03*
X131826000Y-94488000D03*
X127926000Y-95758000D03*
X131826000Y-95758000D03*
X127926000Y-97028000D03*
X131826000Y-97028000D03*
%TD*%
D28*
%TO.C,D3*%
X143764000Y-69088000D03*
D29*
X136144000Y-69088000D03*
%TD*%
D19*
%TO.C,R3*%
X153416000Y-81026000D03*
X153416000Y-75946000D03*
%TD*%
D30*
%TO.C,U1*%
X128269000Y-85606000D03*
X128269000Y-86106000D03*
X128269000Y-86606000D03*
X128269000Y-87106000D03*
D31*
X128781500Y-87118500D03*
X129281500Y-87118500D03*
D30*
X129794000Y-87106000D03*
X129794000Y-86606000D03*
X129794000Y-86106000D03*
X129794000Y-85606000D03*
D31*
X129281500Y-85593500D03*
X128781500Y-85593500D03*
%TD*%
D18*
%TO.C,CN2*%
X148521600Y-94484400D03*
X146021600Y-94484400D03*
X143521600Y-94484400D03*
X141021600Y-94484400D03*
X138521600Y-94484400D03*
%TD*%
D32*
%TO.C,F1*%
X135095100Y-71949000D03*
X136670100Y-71949000D03*
%TD*%
D19*
%TO.C,R7*%
X141224000Y-88646000D03*
X146304000Y-88646000D03*
%TD*%
D16*
%TO.C,C11*%
X166571000Y-84344400D03*
X168121000Y-84344400D03*
%TD*%
D17*
%TO.C,TP6*%
X147320000Y-100330000D03*
%TD*%
D19*
%TO.C,R2*%
X134416800Y-78281000D03*
X134416800Y-83361000D03*
%TD*%
D17*
%TO.C,TP1*%
X130556000Y-67310000D03*
%TD*%
%TO.C,TP5*%
X140208000Y-100330000D03*
%TD*%
D23*
%TO.C,HL3*%
X127000000Y-103886000D03*
%TD*%
D33*
%TO.C,C13*%
X125984000Y-76454000D03*
X125984000Y-73504000D03*
%TD*%
D20*
%TO.C,C7*%
X137406600Y-78546000D03*
X137406600Y-80096000D03*
%TD*%
D19*
%TO.C,R4*%
X153924000Y-84074000D03*
X153924000Y-89154000D03*
%TD*%
%TO.C,R1*%
X130548600Y-78281000D03*
X130548600Y-83361000D03*
%TD*%
D34*
%TO.C,Y1*%
X164826000Y-86884400D03*
X162326000Y-86884400D03*
%TD*%
D33*
%TO.C,C4*%
X125984000Y-88851000D03*
X125984000Y-85901000D03*
%TD*%
D16*
%TO.C,C2*%
X133133800Y-73912200D03*
X134683800Y-73912200D03*
%TD*%
D23*
%TO.C,HL2*%
X127000000Y-68326000D03*
%TD*%
D17*
%TO.C,TP3*%
X126238000Y-100330000D03*
%TD*%
%TO.C,TP4*%
X133096000Y-100330000D03*
%TD*%
D35*
%TO.C,U2*%
X143854900Y-76327000D03*
X147447003Y-76327000D03*
X147447003Y-79919103D03*
%TD*%
D26*
%TO.C,C8*%
X168715000Y-89691400D03*
X168715000Y-88141400D03*
%TD*%
D36*
%TO.C,U3*%
X131485500Y-74963000D03*
X131485500Y-74463000D03*
X131485500Y-73963000D03*
X130060500Y-73963000D03*
X130060500Y-74463000D03*
X130060500Y-74963000D03*
%TD*%
D25*
%TO.C,L3*%
X168715000Y-96815900D03*
X168715000Y-95240900D03*
%TD*%
M02*
