M48
; DRILL file KiCad 10.0.0 date 2026-04-08T14:15:00
; FORMAT={-:-/ absolute / metric / decimal}
; #@! TF.CreationDate,2026-04-08T14:15:00+09:00
; #@! TF.GenerationSoftware,Kicad,Pcbnew,10.0.0
; #@! TF.FileFunction,Plated,1,2,PTH
FMAT,2
METRIC
; #@! TA.AperFunction,Plated,PTH,ViaDrill
T1C0.300
; #@! TA.AperFunction,Plated,PTH,ComponentDrill
T2C0.700
; #@! TA.AperFunction,Plated,PTH,ComponentDrill
T3C0.711
; #@! TA.AperFunction,Plated,PTH,ComponentDrill
T4C1.092
; #@! TA.AperFunction,Plated,PTH,ComponentDrill
T5C1.100
%
G90
G05
T1
X124.774Y-87.816
X124.841Y-66.421
X124.841Y-70.485
X124.841Y-78.359
X124.841Y-82.55
X124.841Y-92.329
X124.841Y-97.028
X124.841Y-101.092
X124.968Y-105.918
X127.0Y-99.568
X128.257Y-87.783
X128.397Y-98.425
X128.447Y-100.251
X128.524Y-81.661
X128.779Y-84.849
X128.905Y-66.421
X128.905Y-72.39
X128.951Y-83.979
X130.556Y-100.457
X131.699Y-105.918
X131.918Y-90.416
X131.918Y-99.327
X132.588Y-81.28
X133.25Y-99.271
X133.858Y-92.075
X134.239Y-89.281
X134.493Y-94.742
X134.493Y-103.124
X135.89Y-66.421
X136.107Y-78.236
X136.548Y-93.662
X136.779Y-96.139
X137.16Y-92.075
X137.541Y-84.328
X137.795Y-100.33
X137.795Y-105.918
X139.954Y-81.661
X140.335Y-72.39
X141.351Y-66.421
X141.478Y-76.454
X141.605Y-96.012
X141.605Y-103.124
X142.367Y-92.075
X143.789Y-100.828
X143.891Y-81.661
X144.653Y-105.918
X145.542Y-96.393
X145.669Y-76.835
X145.923Y-71.628
X145.923Y-90.17
X146.431Y-69.469
X146.812Y-82.804
X147.32Y-66.421
X147.447Y-91.44
X148.046Y-96.021
X148.082Y-86.106
X148.209Y-87.884
X148.336Y-103.124
X148.971Y-90.17
X149.098Y-97.409
X149.352Y-93.345
X149.496Y-99.948
X149.733Y-76.962
X149.733Y-80.899
X150.09Y-85.503
X150.625Y-91.671
X151.003Y-92.71
X151.13Y-73.279
X151.217Y-102.879
X151.257Y-99.06
X151.545Y-91.498
X152.273Y-102.108
X152.315Y-93.358
X152.654Y-105.918
X153.162Y-101.092
X153.543Y-78.74
X153.543Y-90.932
X153.67Y-93.345
X154.051Y-66.421
X154.097Y-86.707
X154.305Y-100.965
X154.94Y-97.155
X155.067Y-100.314
X155.829Y-96.266
X155.956Y-88.265
X155.956Y-100.676
X156.083Y-89.281
X156.145Y-92.429
X156.591Y-75.438
X156.718Y-87.884
X156.845Y-70.739
X157.149Y-88.979
X157.834Y-84.747
X159.054Y-97.46
X159.131Y-91.44
X159.857Y-96.633
X160.02Y-81.153
X160.02Y-93.98
X160.401Y-72.517
X161.036Y-97.79
X161.417Y-77.089
X161.925Y-81.915
X162.306Y-91.948
X162.306Y-95.123
X163.439Y-88.363
X163.576Y-66.421
X163.703Y-100.838
X163.83Y-99.949
X164.465Y-93.853
X164.465Y-96.901
X164.846Y-99.949
X164.846Y-100.838
X165.227Y-91.754
X165.989Y-81.661
X166.116Y-71.12
X166.243Y-86.868
X166.243Y-99.441
X166.624Y-87.63
X166.751Y-77.089
X166.751Y-86.106
X167.837Y-89.047
X169.545Y-86.487
X169.927Y-90.678
X170.18Y-101.092
X170.434Y-88.646
X170.434Y-97.79
X170.561Y-99.822
X170.688Y-86.868
X170.688Y-89.662
X170.815Y-83.566
X171.577Y-87.884
X171.577Y-94.361
X171.577Y-98.552
X171.577Y-99.695
X171.577Y-100.838
X171.704Y-66.548
X171.704Y-73.279
X171.704Y-80.772
T2
X130.549Y-78.281
X130.549Y-83.361
X134.417Y-78.281
X134.417Y-83.361
X141.224Y-85.852
X141.224Y-88.646
X146.304Y-85.852
X146.304Y-88.646
X150.114Y-84.074
X150.114Y-89.154
X153.416Y-75.946
X153.416Y-81.026
X153.924Y-84.074
X153.924Y-89.154
T3
X143.855Y-76.327
X147.447Y-76.327
X147.447Y-79.919
T4
X138.522Y-94.484
X141.022Y-94.484
X143.522Y-94.484
X146.022Y-94.484
X148.522Y-94.484
X160.436Y-79.244
X162.936Y-79.244
X163.572Y-69.85
X163.572Y-72.35
X165.436Y-79.244
X167.936Y-79.244
T5
X136.144Y-69.088
X143.764Y-69.088
M30
