%TF.GenerationSoftware,KiCad,Pcbnew,10.0.0*%
%TF.CreationDate,2026-04-08T14:14:58+09:00*%
%TF.ProjectId,syatyozaiseki,73796174-796f-47a6-9169-73656b692e6b,rev?*%
%TF.SameCoordinates,Original*%
%TF.FileFunction,Copper,L2,Bot*%
%TF.FilePolarity,Positive*%
%FSLAX46Y46*%
G04 Gerber Fmt 4.6, Leading zero omitted, Abs format (unit mm)*
G04 Created by KiCad (PCBNEW 10.0.0) date 2026-04-08 14:14:58*
%MOMM*%
%LPD*%
G01*
G04 APERTURE LIST*
G04 Aperture macros list*
%AMRoundRect*
0 Rectangle with rounded corners*
0 $1 Rounding radius*
0 $2 $3 $4 $5 $6 $7 $8 $9 X,Y pos of 4 corners*
0 Add a 4 corners polygon primitive as box body*
4,1,4,$2,$3,$4,$5,$6,$7,$8,$9,$2,$3,0*
0 Add four circle primitives for the rounded corners*
1,1,$1+$1,$2,$3*
1,1,$1+$1,$4,$5*
1,1,$1+$1,$6,$7*
1,1,$1+$1,$8,$9*
0 Add four rect primitives between the rounded corners*
20,1,$1+$1,$2,$3,$4,$5,0*
20,1,$1+$1,$4,$5,$6,$7,0*
20,1,$1+$1,$6,$7,$8,$9,0*
20,1,$1+$1,$8,$9,$2,$3,0*%
G04 Aperture macros list end*
%TA.AperFunction,ComponentPad*%
%ADD10C,1.600200*%
%TD*%
%TA.AperFunction,ComponentPad*%
%ADD11C,1.400000*%
%TD*%
%TA.AperFunction,ComponentPad*%
%ADD12RoundRect,0.249999X0.850001X0.850001X-0.850001X0.850001X-0.850001X-0.850001X0.850001X-0.850001X0*%
%TD*%
%TA.AperFunction,ComponentPad*%
%ADD13C,2.200000*%
%TD*%
%TA.AperFunction,ComponentPad*%
%ADD14C,1.219200*%
%TD*%
%TA.AperFunction,ViaPad*%
%ADD15C,0.600000*%
%TD*%
%TA.AperFunction,Conductor*%
%ADD16C,0.200000*%
%TD*%
%TA.AperFunction,Conductor*%
%ADD17C,0.400000*%
%TD*%
G04 APERTURE END LIST*
D10*
%TO.P,CN1,1*%
%TO.N,P0.02*%
X167935600Y-79244400D03*
%TO.P,CN1,2*%
%TO.N,P0.03*%
X165435600Y-79244400D03*
%TO.P,CN1,3*%
%TO.N,P0.04*%
X162935600Y-79244400D03*
%TO.P,CN1,4*%
%TO.N,P0.05*%
X160435600Y-79244400D03*
%TD*%
D11*
%TO.P,R5,1*%
%TO.N,+3.3V*%
X150114000Y-84074000D03*
%TO.P,R5,2*%
%TO.N,Net-(U1-SDA)*%
X150114000Y-89154000D03*
%TD*%
%TO.P,R6,1*%
%TO.N,Net-(D1-Pad1)*%
X141224000Y-85852000D03*
%TO.P,R6,2*%
%TO.N,Net-(U4-P0.22)*%
X146304000Y-85852000D03*
%TD*%
D10*
%TO.P,J1,1,Pin_1_1*%
%TO.N,Net-(J1-Pin_1)*%
X163572400Y-69850000D03*
%TO.P,J1,2,Pin_2_2*%
%TO.N,GND*%
X163572400Y-72350000D03*
%TD*%
D12*
%TO.P,D3,1*%
%TO.N,Net-(SW1-A)*%
X143764000Y-69088000D03*
D13*
%TO.P,D3,2*%
%TO.N,Net-(D3-Pad2)*%
X136144000Y-69088000D03*
%TD*%
D11*
%TO.P,R3,1*%
%TO.N,+3.3V*%
X153416000Y-81026000D03*
%TO.P,R3,2*%
%TO.N,Net-(U2-OUT)*%
X153416000Y-75946000D03*
%TD*%
D10*
%TO.P,CN2,1*%
%TO.N,P0.06*%
X148521600Y-94484400D03*
%TO.P,CN2,2*%
%TO.N,P0.07*%
X146021600Y-94484400D03*
%TO.P,CN2,3*%
%TO.N,P0.08*%
X143521600Y-94484400D03*
%TO.P,CN2,4*%
%TO.N,P0.09*%
X141021600Y-94484400D03*
%TO.P,CN2,5*%
%TO.N,P0.10*%
X138521600Y-94484400D03*
%TD*%
D11*
%TO.P,R7,1*%
%TO.N,Net-(D2-Pad1)*%
X141224000Y-88646000D03*
%TO.P,R7,2*%
%TO.N,Net-(U4-P0.25)*%
X146304000Y-88646000D03*
%TD*%
%TO.P,R2,1*%
%TO.N,Net-(U3-FB)*%
X134416800Y-78281000D03*
%TO.P,R2,2*%
%TO.N,GND*%
X134416800Y-83361000D03*
%TD*%
%TO.P,R4,1*%
%TO.N,+3.3V*%
X153924000Y-84074000D03*
%TO.P,R4,2*%
%TO.N,Net-(U1-SCL)*%
X153924000Y-89154000D03*
%TD*%
%TO.P,R1,1*%
%TO.N,Net-(U3-FB)*%
X130548600Y-78281000D03*
%TO.P,R1,2*%
%TO.N,+3.3V*%
X130548600Y-83361000D03*
%TD*%
D14*
%TO.P,U2,1,VDD_1*%
%TO.N,+3.3V*%
X143854900Y-76327000D03*
%TO.P,U2,2,OUT_2*%
%TO.N,Net-(U2-OUT)*%
X147447003Y-76327000D03*
%TO.P,U2,3,GND_3*%
%TO.N,GND*%
X147447003Y-79919103D03*
%TD*%
D15*
%TO.N,GND*%
X170688000Y-89662000D03*
X166243000Y-86868000D03*
X171577000Y-99695000D03*
X164846000Y-99949000D03*
X163703000Y-100838000D03*
X164846000Y-100838000D03*
X141605000Y-96012000D03*
X166116000Y-71120000D03*
X145923000Y-71628000D03*
X148336000Y-103124000D03*
X141605000Y-103124000D03*
X134493000Y-103124000D03*
X152654000Y-105918000D03*
X136779000Y-96139000D03*
X165989000Y-81661000D03*
X170815000Y-83566000D03*
X156718000Y-87884000D03*
X156083000Y-89281000D03*
X155956000Y-88265000D03*
X152273000Y-102108000D03*
X170434000Y-97790000D03*
X170688000Y-86868000D03*
X166751000Y-86106000D03*
%TO.N,+3.3V*%
X165227000Y-91754400D03*
%TO.N,*%
X161036000Y-97790000D03*
%TO.N,GND*%
X164465000Y-96901000D03*
X162306000Y-95123000D03*
X164465000Y-93853000D03*
X160020000Y-93980000D03*
X162306000Y-91948000D03*
X159131000Y-91440000D03*
X145542000Y-96393000D03*
X170434000Y-88646000D03*
X128524000Y-81661000D03*
X166624000Y-87630000D03*
X128905000Y-72390000D03*
X124841000Y-82550000D03*
X160020000Y-81153000D03*
X154940000Y-97155000D03*
X160401000Y-72517000D03*
X148082000Y-86106000D03*
X124841000Y-97028000D03*
X148209000Y-87884000D03*
X156591000Y-75438000D03*
X145669000Y-76835000D03*
X171704000Y-80772000D03*
X157149400Y-88979300D03*
X137160000Y-92075000D03*
X151130000Y-73279000D03*
X151544910Y-91498063D03*
X161417000Y-77089000D03*
X139954000Y-81661000D03*
X147447000Y-91440000D03*
X156845000Y-70739000D03*
X124841000Y-66421000D03*
X146431000Y-69469000D03*
X131699000Y-105918000D03*
X149352000Y-93345000D03*
X153543000Y-78740000D03*
X127000000Y-99568000D03*
X154051000Y-66421000D03*
X134493000Y-94742000D03*
X149098000Y-97409000D03*
X144653000Y-105918000D03*
X149733000Y-76962000D03*
X170180000Y-101092000D03*
X163830000Y-99949000D03*
X166751000Y-77089000D03*
X143891000Y-81661000D03*
X171577000Y-98552000D03*
X155829000Y-96266000D03*
X137795000Y-100330000D03*
X124841000Y-70485000D03*
X136106800Y-78235900D03*
X155956000Y-100676000D03*
X148971000Y-90170000D03*
X166243000Y-99441000D03*
X171577000Y-94361000D03*
X151257000Y-99060000D03*
X137795000Y-105918000D03*
X146812000Y-82804000D03*
X171577000Y-100838000D03*
X161925000Y-81915000D03*
X134239000Y-89281000D03*
X151003000Y-92710000D03*
X153670000Y-93345000D03*
X130556000Y-100457000D03*
X140335000Y-72390000D03*
X154305000Y-100965000D03*
X135890000Y-66421000D03*
X153543000Y-90932000D03*
X124841000Y-101092000D03*
X142367000Y-92075000D03*
X137541000Y-84328000D03*
X141478000Y-76454000D03*
X132588000Y-81280000D03*
X170561000Y-99822000D03*
X128905000Y-66421000D03*
X155067000Y-100314000D03*
X169927400Y-90678000D03*
X171704000Y-66548000D03*
X124841000Y-78359000D03*
X169545000Y-86487000D03*
X124841000Y-92329000D03*
X141351000Y-66421000D03*
X149733000Y-80899000D03*
X128397000Y-98425000D03*
X153162000Y-101092000D03*
X145923000Y-90170000D03*
X124774300Y-87815700D03*
X171577000Y-87884000D03*
X147320000Y-66421000D03*
X163576000Y-66421000D03*
X124968000Y-105918000D03*
X133858000Y-92075000D03*
X171704000Y-73279000D03*
%TO.N,+3.3V*%
X157833700Y-84747000D03*
%TO.N,P0.02*%
X167837300Y-89047200D03*
%TO.N,P0.03*%
X163439300Y-88363200D03*
%TO.N,Net-(U1-SDA)*%
X128256600Y-87783400D03*
X152314600Y-93358300D03*
X133249600Y-99271200D03*
X150625180Y-91671150D03*
%TO.N,Net-(U4-P0.22)*%
X151216800Y-102879200D03*
%TO.N,Net-(J2-SWCLK{slash}TCK)*%
X143789200Y-100827600D03*
X136547800Y-93661800D03*
%TO.N,Net-(J2-~{RESET})*%
X148045700Y-96021400D03*
X149495900Y-99947800D03*
%TO.N,Net-(U2-OUT)*%
X156144800Y-92429000D03*
%TO.N,Net-(U1-SCL)*%
X128950700Y-83978600D03*
X131918300Y-99326800D03*
X154097300Y-86707500D03*
X131918300Y-90416000D03*
%TO.N,Net-(U1-INF1)*%
X128779100Y-84848600D03*
X128447000Y-100250600D03*
%TO.N,P0.06*%
X159054100Y-97460400D03*
%TO.N,P0.07*%
X150090300Y-85503400D03*
%TO.N,Net-(U4-P0.25)*%
X159856700Y-96633400D03*
%TD*%
%TO.N,Net-(U2-OUT)*%
D16*
X155321000Y-91605200D02*
X156144800Y-92429000D01*
X153416000Y-75946000D02*
X155321000Y-77851000D01*
X155321000Y-77851000D02*
X155321000Y-91605200D01*
%TO.N,GND*%
X151544910Y-92168090D02*
X151003000Y-92710000D01*
X151003000Y-92710000D02*
X150876000Y-92837000D01*
X134416800Y-83361000D02*
X134416800Y-79925900D01*
X150524339Y-95711994D02*
X149718859Y-95711994D01*
X157149400Y-78773000D02*
X157149400Y-88979300D01*
X149718859Y-95711994D02*
X149575926Y-95854927D01*
X134504600Y-79838100D02*
X136106800Y-78235900D01*
X163572400Y-72350000D02*
X157149400Y-78773000D01*
X130559600Y-75893100D02*
X134504600Y-79838100D01*
X151544910Y-91498063D02*
X151544910Y-92168090D01*
X151257000Y-99060000D02*
X151257000Y-96444655D01*
X151257000Y-96444655D02*
X150524339Y-95711994D01*
X134416800Y-79925900D02*
X134504600Y-79838100D01*
%TO.N,+3.3V*%
D17*
X157833700Y-84808700D02*
X164779400Y-91754400D01*
X157833700Y-84747000D02*
X157833700Y-84808700D01*
X164779400Y-91754400D02*
X165227000Y-91754400D01*
X153416000Y-83566000D02*
X153416000Y-81026000D01*
%TO.N,P0.02*%
D16*
X167837300Y-79342700D02*
X167837300Y-89047200D01*
X167935600Y-79244400D02*
X167837300Y-79342700D01*
%TO.N,P0.03*%
X163439300Y-88363200D02*
X163439300Y-81240700D01*
X163439300Y-81240700D02*
X165435600Y-79244400D01*
%TO.N,Net-(U1-SDA)*%
X152054000Y-91094000D02*
X152054000Y-91180529D01*
X151194295Y-90234295D02*
X152054000Y-91094000D01*
X152314600Y-91441129D02*
X152314600Y-93358300D01*
X150625180Y-91671150D02*
X150625180Y-89665180D01*
X133249600Y-99271200D02*
X132592200Y-99928600D01*
X150625180Y-89665180D02*
X150114000Y-89154000D01*
X152054000Y-91180529D02*
X152314600Y-91441129D01*
X132592200Y-99928600D02*
X131629800Y-99928600D01*
X128256600Y-96555400D02*
X128256600Y-87783400D01*
X150625180Y-90803410D02*
X151194295Y-90234295D01*
X131629800Y-99928600D02*
X128256600Y-96555400D01*
X150625180Y-91671150D02*
X150625180Y-90803410D01*
%TO.N,Net-(U4-P0.22)*%
X145287700Y-90560000D02*
X147347000Y-92619300D01*
X147347000Y-92619300D02*
X147347000Y-99009400D01*
X145287700Y-86868300D02*
X145287700Y-90560000D01*
X146304000Y-85852000D02*
X145287700Y-86868300D01*
X147347000Y-99009400D02*
X151216800Y-102879200D01*
%TO.N,Net-(J2-SWCLK{slash}TCK)*%
X143182300Y-100827600D02*
X143789200Y-100827600D01*
X136547800Y-94193100D02*
X143182300Y-100827600D01*
X136547800Y-93661800D02*
X136547800Y-94193100D01*
%TO.N,Net-(J2-~{RESET})*%
X148045700Y-96021400D02*
X148045700Y-98497600D01*
X147959600Y-96107500D02*
X148045700Y-96021400D01*
X148045700Y-96021400D02*
X147959600Y-96107500D01*
X148045700Y-98497600D02*
X149495900Y-99947800D01*
%TO.N,Net-(U1-SCL)*%
X154097300Y-88980700D02*
X154097300Y-86707500D01*
X128950700Y-83978600D02*
X131918300Y-86946200D01*
X153924000Y-89154000D02*
X154097300Y-88980700D01*
X131918300Y-86946200D02*
X131918300Y-90416000D01*
X131918300Y-99326800D02*
X131918300Y-90416000D01*
%TO.N,Net-(U1-INF1)*%
X128447000Y-100250600D02*
X127654800Y-99458400D01*
X127654800Y-85972900D02*
X128779100Y-84848600D01*
X127654800Y-99458400D02*
X127654800Y-85972900D01*
%TO.N,P0.06*%
X156729500Y-95135800D02*
X149173000Y-95135800D01*
X159054100Y-97460400D02*
X156729500Y-95135800D01*
X149173000Y-95135800D02*
X148521600Y-94484400D01*
%TO.N,P0.07*%
X144869800Y-93332600D02*
X146021600Y-94484400D01*
X149405300Y-84818400D02*
X145888800Y-84818400D01*
X144869800Y-85837400D02*
X144869800Y-93332600D01*
X150090300Y-85503400D02*
X149405300Y-84818400D01*
X145888800Y-84818400D02*
X144869800Y-85837400D01*
%TO.N,Net-(U4-P0.25)*%
X157957400Y-94734100D02*
X159856700Y-96633400D01*
X152138100Y-94734100D02*
X157957400Y-94734100D01*
X146751600Y-88646000D02*
X146751600Y-89347600D01*
X146751600Y-89347600D02*
X152138100Y-94734100D01*
X146304000Y-88646000D02*
X146751600Y-88646000D01*
%TD*%
%TA.AperFunction,Conductor*%
%TO.N,GND*%
G36*
X146048389Y-89820979D02*
G01*
X146092707Y-89827999D01*
X146209514Y-89846500D01*
X146332073Y-89846500D01*
X146367005Y-89851521D01*
X146392249Y-89858934D01*
X146444995Y-89890230D01*
X150865776Y-94311011D01*
X150886925Y-94339261D01*
X150892346Y-94349188D01*
X150907200Y-94417461D01*
X150882786Y-94482926D01*
X150826854Y-94524799D01*
X150826850Y-94524801D01*
X150819662Y-94527482D01*
X150776328Y-94535300D01*
X149964030Y-94535300D01*
X149929089Y-94530275D01*
X149914090Y-94525870D01*
X149855344Y-94488127D01*
X149854157Y-94486758D01*
X149826677Y-94431883D01*
X149825032Y-94424321D01*
X149822200Y-94397968D01*
X149822200Y-94382036D01*
X149820682Y-94372455D01*
X149804796Y-94272154D01*
X149799600Y-94239349D01*
X149795430Y-94213020D01*
X149790175Y-94179842D01*
X149728422Y-93989784D01*
X149727358Y-93986012D01*
X149633973Y-93802737D01*
X149586560Y-93737479D01*
X149513642Y-93637116D01*
X149368884Y-93492358D01*
X149203263Y-93372027D01*
X149020857Y-93279085D01*
X149020854Y-93279084D01*
X149020853Y-93279083D01*
X149020850Y-93279082D01*
X149020830Y-93279075D01*
X148826161Y-93215825D01*
X148826162Y-93215825D01*
X148673886Y-93191707D01*
X148623964Y-93183800D01*
X148623963Y-93183800D01*
X148419237Y-93183800D01*
X148419236Y-93183800D01*
X148378563Y-93190242D01*
X148217036Y-93215825D01*
X148126771Y-93245154D01*
X148091992Y-93251172D01*
X148078122Y-93251568D01*
X148010548Y-93233805D01*
X147963305Y-93182329D01*
X147963304Y-93182327D01*
X147961467Y-93178591D01*
X147960220Y-93176055D01*
X147947500Y-93121348D01*
X147947500Y-92710751D01*
X147947501Y-92710700D01*
X147947501Y-92540245D01*
X147947501Y-92540243D01*
X147906577Y-92387515D01*
X147906575Y-92387512D01*
X147906575Y-92387510D01*
X147906574Y-92387509D01*
X147882034Y-92345005D01*
X147882033Y-92345004D01*
X147873870Y-92330865D01*
X147873870Y-92330864D01*
X147829359Y-92253769D01*
X147827951Y-92251152D01*
X147827572Y-92250636D01*
X147710363Y-92133427D01*
X147710320Y-92133385D01*
X145937126Y-90360191D01*
X145915974Y-90331935D01*
X145903367Y-90308846D01*
X145888200Y-90249421D01*
X145888200Y-89958622D01*
X145893222Y-89923689D01*
X145897133Y-89910370D01*
X145934906Y-89851593D01*
X145998458Y-89822568D01*
X146003892Y-89821786D01*
X146011349Y-89820715D01*
X146048389Y-89820979D01*
G37*
%TD.AperFunction*%
%TA.AperFunction,Conductor*%
G36*
X151604366Y-91594984D02*
G01*
X151611352Y-91598174D01*
X151647522Y-91623287D01*
X151665173Y-91640938D01*
X151686323Y-91669190D01*
X151698931Y-91692279D01*
X151714100Y-91751708D01*
X151714100Y-92760704D01*
X151709076Y-92795641D01*
X151699736Y-92827448D01*
X151683862Y-92861402D01*
X151605207Y-92979116D01*
X151605200Y-92979132D01*
X151573839Y-93054842D01*
X151555831Y-93085194D01*
X151547123Y-93096000D01*
X151489730Y-93135848D01*
X151419912Y-93138344D01*
X151414837Y-93137049D01*
X151357815Y-93104580D01*
X150886150Y-92632915D01*
X150865001Y-92604665D01*
X150858346Y-92592477D01*
X150843495Y-92524207D01*
X150867909Y-92458746D01*
X150871062Y-92454535D01*
X150922864Y-92414299D01*
X151000312Y-92382220D01*
X151002924Y-92381245D01*
X151004331Y-92380555D01*
X151004353Y-92380547D01*
X151004356Y-92380545D01*
X151004359Y-92380544D01*
X151135469Y-92292939D01*
X151246969Y-92181439D01*
X151334574Y-92050329D01*
X151334785Y-92049821D01*
X151366227Y-91973912D01*
X151394917Y-91904647D01*
X151397593Y-91891197D01*
X151422007Y-91768459D01*
X151425680Y-91749992D01*
X151425680Y-91718636D01*
X151430701Y-91683709D01*
X151433095Y-91675553D01*
X151433887Y-91672854D01*
X151471657Y-91614075D01*
X151535211Y-91585046D01*
X151604366Y-91594984D01*
G37*
%TD.AperFunction*%
%TA.AperFunction,Conductor*%
G36*
X172112606Y-66037523D02*
G01*
X172127604Y-66041927D01*
X172186355Y-66079672D01*
X172187542Y-66081041D01*
X172215018Y-66135902D01*
X172216663Y-66143460D01*
X172219500Y-66169831D01*
X172219500Y-101349000D01*
X172199815Y-101416039D01*
X172147011Y-101461794D01*
X172095500Y-101473000D01*
X153416000Y-101473000D01*
X153416000Y-106309500D01*
X153396315Y-106376539D01*
X153343511Y-106422294D01*
X153292000Y-106433500D01*
X124594330Y-106433500D01*
X124559389Y-106428475D01*
X124544390Y-106424070D01*
X124485644Y-106386327D01*
X124484457Y-106384958D01*
X124456977Y-106330083D01*
X124455332Y-106322521D01*
X124452500Y-106296168D01*
X124452500Y-103783642D01*
X125699500Y-103783642D01*
X125699500Y-103988356D01*
X125731521Y-104190530D01*
X125794780Y-104385221D01*
X125794786Y-104385234D01*
X125887708Y-104567601D01*
X125887709Y-104567602D01*
X125887715Y-104567613D01*
X126008028Y-104733213D01*
X126152786Y-104877971D01*
X126307749Y-104990556D01*
X126318390Y-104998287D01*
X126434607Y-105057503D01*
X126495154Y-105088353D01*
X126496043Y-105088824D01*
X126496249Y-105089025D01*
X126499629Y-105090662D01*
X126501637Y-105091660D01*
X126505403Y-105092722D01*
X126545488Y-105105746D01*
X126605135Y-105125126D01*
X126605136Y-105125127D01*
X126648612Y-105139253D01*
X126695465Y-105154477D01*
X126796557Y-105170488D01*
X126897648Y-105186500D01*
X126897649Y-105186500D01*
X127102351Y-105186500D01*
X127102352Y-105186500D01*
X127304534Y-105154477D01*
X127499219Y-105091220D01*
X127681610Y-104998287D01*
X127774590Y-104930732D01*
X127847213Y-104877971D01*
X127847213Y-104877969D01*
X127847272Y-104877927D01*
X127848031Y-104877153D01*
X127991966Y-104733219D01*
X127991968Y-104733215D01*
X127991971Y-104733213D01*
X128044730Y-104660593D01*
X128044732Y-104660591D01*
X128068172Y-104628327D01*
X128112287Y-104567610D01*
X128205220Y-104385219D01*
X128268477Y-104190534D01*
X128300500Y-103988352D01*
X128300500Y-103783648D01*
X128279163Y-103648935D01*
X128269607Y-103588597D01*
X128268478Y-103581469D01*
X128268477Y-103581467D01*
X128268477Y-103581465D01*
X128239127Y-103491137D01*
X128205220Y-103386781D01*
X128205218Y-103386778D01*
X128205218Y-103386776D01*
X128202981Y-103382385D01*
X128202669Y-103381586D01*
X128201932Y-103380327D01*
X128171503Y-103320607D01*
X128139789Y-103258365D01*
X128112287Y-103204390D01*
X128045672Y-103112701D01*
X128045671Y-103112699D01*
X128045668Y-103112696D01*
X128045665Y-103112691D01*
X127991971Y-103038786D01*
X127847213Y-102894028D01*
X127681613Y-102773715D01*
X127681612Y-102773714D01*
X127681610Y-102773713D01*
X127653171Y-102759222D01*
X127624654Y-102744691D01*
X127624653Y-102744691D01*
X127499223Y-102680781D01*
X127304534Y-102617522D01*
X127304532Y-102617521D01*
X127304530Y-102617521D01*
X127304529Y-102617520D01*
X127129995Y-102589878D01*
X127113409Y-102587251D01*
X127102354Y-102585500D01*
X127102352Y-102585500D01*
X126897648Y-102585500D01*
X126897647Y-102585500D01*
X126873327Y-102589351D01*
X126873326Y-102589350D01*
X126695468Y-102617521D01*
X126500777Y-102680780D01*
X126500764Y-102680786D01*
X126318397Y-102773708D01*
X126318385Y-102773715D01*
X126152787Y-102894027D01*
X126152784Y-102894029D01*
X126008029Y-103038784D01*
X126008027Y-103038787D01*
X125887715Y-103204385D01*
X125887708Y-103204397D01*
X125794786Y-103386764D01*
X125794780Y-103386777D01*
X125731521Y-103581468D01*
X125699500Y-103783642D01*
X124452500Y-103783642D01*
X124452500Y-99537454D01*
X127054298Y-99537454D01*
X127062651Y-99568627D01*
X127064948Y-99577202D01*
X127064949Y-99577204D01*
X127081930Y-99640575D01*
X127081321Y-99666112D01*
X127104339Y-99705975D01*
X127104343Y-99705981D01*
X127174276Y-99827111D01*
X127174277Y-99827112D01*
X127174282Y-99827118D01*
X127174288Y-99827125D01*
X127295114Y-99947951D01*
X127295159Y-99947994D01*
X127599817Y-100252652D01*
X127620967Y-100280905D01*
X127636854Y-100309999D01*
X127649640Y-100345235D01*
X127677259Y-100484084D01*
X127677260Y-100484088D01*
X127677261Y-100484091D01*
X127677264Y-100484101D01*
X127677267Y-100484109D01*
X127677272Y-100484123D01*
X127737598Y-100629765D01*
X127737603Y-100629774D01*
X127737613Y-100629791D01*
X127825211Y-100760890D01*
X127825212Y-100760891D01*
X127825217Y-100760897D01*
X127936701Y-100872381D01*
X127936707Y-100872386D01*
X127936711Y-100872389D01*
X128067814Y-100959990D01*
X128067827Y-100959997D01*
X128213498Y-101020335D01*
X128213503Y-101020337D01*
X128368153Y-101051099D01*
X128368156Y-101051100D01*
X128368158Y-101051100D01*
X128525844Y-101051100D01*
X128525845Y-101051099D01*
X128680497Y-101020337D01*
X128826179Y-100959994D01*
X128957289Y-100872389D01*
X129068789Y-100760889D01*
X129156394Y-100629779D01*
X129216737Y-100484097D01*
X129247500Y-100329442D01*
X129247500Y-100171758D01*
X129247500Y-100171755D01*
X129247500Y-100171573D01*
X129247065Y-100169571D01*
X129227714Y-100072288D01*
X129221478Y-100040937D01*
X129216737Y-100017103D01*
X129201613Y-99980590D01*
X129156397Y-99871427D01*
X129156390Y-99871414D01*
X129068789Y-99740311D01*
X129068787Y-99740308D01*
X129068786Y-99740307D01*
X129068781Y-99740301D01*
X128957297Y-99628817D01*
X128957291Y-99628812D01*
X128957290Y-99628811D01*
X128826191Y-99541213D01*
X128826190Y-99541212D01*
X128826185Y-99541209D01*
X128826172Y-99541202D01*
X128826165Y-99541198D01*
X128680523Y-99480872D01*
X128680509Y-99480867D01*
X128680501Y-99480864D01*
X128680491Y-99480861D01*
X128680486Y-99480860D01*
X128680483Y-99480859D01*
X128542636Y-99453439D01*
X128509354Y-99441698D01*
X128479980Y-99426333D01*
X128449773Y-99404138D01*
X128304226Y-99258591D01*
X128283074Y-99230335D01*
X128270467Y-99207246D01*
X128255300Y-99147821D01*
X128255300Y-97720526D01*
X128260321Y-97685599D01*
X128263507Y-97674746D01*
X128301277Y-97615965D01*
X128364831Y-97586936D01*
X128433986Y-97596874D01*
X128440972Y-97600064D01*
X128477142Y-97625177D01*
X131143885Y-100291920D01*
X131143906Y-100291942D01*
X131144949Y-100292985D01*
X131149279Y-100297315D01*
X131149280Y-100297316D01*
X131261084Y-100409120D01*
X131329156Y-100448421D01*
X131398015Y-100488177D01*
X131550743Y-100529100D01*
X131708857Y-100529100D01*
X132503580Y-100529100D01*
X132503643Y-100529101D01*
X132505547Y-100529101D01*
X132513143Y-100529101D01*
X132671254Y-100529101D01*
X132671257Y-100529101D01*
X132823985Y-100488177D01*
X132892844Y-100448421D01*
X132960916Y-100409120D01*
X133072720Y-100297316D01*
X133072720Y-100297315D01*
X133090156Y-100279879D01*
X133090160Y-100279872D01*
X133251656Y-100118376D01*
X133279907Y-100097228D01*
X133309003Y-100081341D01*
X133344233Y-100068559D01*
X133385685Y-100060313D01*
X133483097Y-100040937D01*
X133628779Y-99980594D01*
X133759889Y-99892989D01*
X133871389Y-99781489D01*
X133958994Y-99650379D01*
X134019337Y-99504697D01*
X134050100Y-99350042D01*
X134050100Y-99192358D01*
X134050100Y-99192355D01*
X134050100Y-99192174D01*
X134049666Y-99190178D01*
X134047256Y-99178059D01*
X134047256Y-99178058D01*
X134019338Y-99037710D01*
X134019337Y-99037703D01*
X134019335Y-99037698D01*
X133958997Y-98892027D01*
X133958990Y-98892014D01*
X133871389Y-98760911D01*
X133871386Y-98760907D01*
X133871381Y-98760901D01*
X133759897Y-98649417D01*
X133759891Y-98649412D01*
X133759890Y-98649411D01*
X133628791Y-98561813D01*
X133628790Y-98561812D01*
X133628785Y-98561809D01*
X133628772Y-98561802D01*
X133628765Y-98561798D01*
X133483102Y-98501464D01*
X133483071Y-98501457D01*
X133328447Y-98470700D01*
X133328445Y-98470700D01*
X133328442Y-98470700D01*
X133170758Y-98470700D01*
X133170755Y-98470700D01*
X133170753Y-98470700D01*
X133016127Y-98501457D01*
X133016096Y-98501464D01*
X132870433Y-98561798D01*
X132870424Y-98561803D01*
X132870407Y-98561813D01*
X132739311Y-98649409D01*
X132736935Y-98651471D01*
X132715106Y-98666635D01*
X132704905Y-98672205D01*
X132636632Y-98687056D01*
X132571168Y-98662638D01*
X132529298Y-98606704D01*
X132526613Y-98599504D01*
X132518800Y-98556184D01*
X132518800Y-93740648D01*
X135747299Y-93740648D01*
X135778057Y-93895271D01*
X135778064Y-93895302D01*
X135838398Y-94040965D01*
X135838402Y-94040972D01*
X135838409Y-94040985D01*
X135916496Y-94157849D01*
X135931730Y-94189691D01*
X135935339Y-94201219D01*
X135935840Y-94229394D01*
X135988072Y-94424324D01*
X135988223Y-94424885D01*
X135988224Y-94424888D01*
X135992064Y-94431538D01*
X135992067Y-94431543D01*
X136044932Y-94523109D01*
X136067276Y-94561811D01*
X136067277Y-94561812D01*
X136067282Y-94561818D01*
X136067288Y-94561825D01*
X136188114Y-94682651D01*
X136188159Y-94682694D01*
X142696385Y-101190920D01*
X142696406Y-101190942D01*
X142697449Y-101191985D01*
X142701779Y-101196315D01*
X142701780Y-101196316D01*
X142813584Y-101308120D01*
X142865145Y-101337888D01*
X142900395Y-101358239D01*
X142900397Y-101358241D01*
X142938446Y-101380208D01*
X142938449Y-101380211D01*
X142938450Y-101380211D01*
X142950511Y-101387175D01*
X142950512Y-101387175D01*
X142950515Y-101387177D01*
X143103243Y-101428101D01*
X143191606Y-101428101D01*
X143226538Y-101433122D01*
X143258352Y-101442464D01*
X143292300Y-101458335D01*
X143410014Y-101536990D01*
X143410027Y-101536997D01*
X143555698Y-101597335D01*
X143555703Y-101597337D01*
X143710353Y-101628099D01*
X143710356Y-101628100D01*
X143710358Y-101628100D01*
X143868044Y-101628100D01*
X143868045Y-101628099D01*
X144022697Y-101597337D01*
X144168379Y-101536994D01*
X144299489Y-101449389D01*
X144410989Y-101337889D01*
X144498594Y-101206779D01*
X144558937Y-101061097D01*
X144589700Y-100906442D01*
X144589700Y-100748758D01*
X144589700Y-100748755D01*
X144589700Y-100748573D01*
X144589265Y-100746572D01*
X144583014Y-100715147D01*
X144583014Y-100715146D01*
X144558938Y-100594108D01*
X144558937Y-100594107D01*
X144558937Y-100594103D01*
X144558934Y-100594097D01*
X144558933Y-100594092D01*
X144548783Y-100569588D01*
X144548782Y-100569586D01*
X144498599Y-100448431D01*
X144498598Y-100448429D01*
X144498597Y-100448427D01*
X144498590Y-100448414D01*
X144410989Y-100317311D01*
X144410986Y-100317307D01*
X144410981Y-100317301D01*
X144299497Y-100205817D01*
X144299491Y-100205812D01*
X144299490Y-100205811D01*
X144168391Y-100118213D01*
X144168390Y-100118212D01*
X144168385Y-100118209D01*
X144168372Y-100118202D01*
X144168365Y-100118198D01*
X144022702Y-100057864D01*
X144022671Y-100057857D01*
X143868047Y-100027100D01*
X143868045Y-100027100D01*
X143868042Y-100027100D01*
X143710358Y-100027100D01*
X143710355Y-100027100D01*
X143710353Y-100027100D01*
X143577848Y-100053457D01*
X143577845Y-100053457D01*
X143555710Y-100057861D01*
X143555707Y-100057861D01*
X143439207Y-100106116D01*
X143437476Y-100106774D01*
X143434744Y-100106985D01*
X143406700Y-100114144D01*
X143391155Y-100115815D01*
X143370034Y-100112003D01*
X143367815Y-100112176D01*
X143366215Y-100111314D01*
X143322396Y-100103408D01*
X143310217Y-100097311D01*
X143278046Y-100074111D01*
X139069876Y-95865941D01*
X139048727Y-95837691D01*
X139042072Y-95825503D01*
X139027221Y-95757233D01*
X139051635Y-95691772D01*
X139055835Y-95686162D01*
X139098797Y-95650000D01*
X139203263Y-95596773D01*
X139368884Y-95476442D01*
X139513642Y-95331684D01*
X139633973Y-95166063D01*
X139653021Y-95128678D01*
X139673355Y-95099833D01*
X139682247Y-95090417D01*
X139742588Y-95055196D01*
X139812394Y-95058188D01*
X139866114Y-95094363D01*
X139872184Y-95101369D01*
X139888950Y-95126270D01*
X139909223Y-95166057D01*
X139909224Y-95166059D01*
X139909227Y-95166063D01*
X140029558Y-95331684D01*
X140174316Y-95476442D01*
X140339937Y-95596773D01*
X140429401Y-95642357D01*
X140522342Y-95689714D01*
X140522345Y-95689715D01*
X140602819Y-95715862D01*
X140607899Y-95717512D01*
X140607900Y-95717513D01*
X140622692Y-95722319D01*
X140717042Y-95752975D01*
X140810689Y-95767807D01*
X140919236Y-95785000D01*
X140919241Y-95785000D01*
X141123963Y-95785000D01*
X141123964Y-95785000D01*
X141221985Y-95769474D01*
X141326158Y-95752975D01*
X141520857Y-95689714D01*
X141703263Y-95596773D01*
X141868884Y-95476442D01*
X142013642Y-95331684D01*
X142133973Y-95166063D01*
X142153021Y-95128678D01*
X142173355Y-95099833D01*
X142182247Y-95090417D01*
X142242588Y-95055196D01*
X142312394Y-95058188D01*
X142366114Y-95094363D01*
X142372184Y-95101369D01*
X142388950Y-95126270D01*
X142409223Y-95166057D01*
X142409224Y-95166059D01*
X142409227Y-95166063D01*
X142529558Y-95331684D01*
X142674316Y-95476442D01*
X142839937Y-95596773D01*
X142929401Y-95642357D01*
X143022342Y-95689714D01*
X143022345Y-95689715D01*
X143102819Y-95715862D01*
X143107899Y-95717512D01*
X143107900Y-95717513D01*
X143122692Y-95722319D01*
X143217042Y-95752975D01*
X143310689Y-95767807D01*
X143419236Y-95785000D01*
X143419241Y-95785000D01*
X143623963Y-95785000D01*
X143623964Y-95785000D01*
X143721985Y-95769474D01*
X143826158Y-95752975D01*
X144020857Y-95689714D01*
X144203263Y-95596773D01*
X144368884Y-95476442D01*
X144513642Y-95331684D01*
X144633973Y-95166063D01*
X144653021Y-95128678D01*
X144673355Y-95099833D01*
X144682247Y-95090417D01*
X144742588Y-95055196D01*
X144812394Y-95058188D01*
X144866114Y-95094363D01*
X144872184Y-95101369D01*
X144888950Y-95126270D01*
X144909223Y-95166057D01*
X144909224Y-95166059D01*
X144909227Y-95166063D01*
X145029558Y-95331684D01*
X145174316Y-95476442D01*
X145339937Y-95596773D01*
X145429401Y-95642357D01*
X145522342Y-95689714D01*
X145522345Y-95689715D01*
X145602819Y-95715862D01*
X145607899Y-95717512D01*
X145607900Y-95717513D01*
X145622692Y-95722319D01*
X145717042Y-95752975D01*
X145810689Y-95767807D01*
X145919236Y-95785000D01*
X145919241Y-95785000D01*
X146123963Y-95785000D01*
X146123964Y-95785000D01*
X146221985Y-95769474D01*
X146326158Y-95752975D01*
X146520857Y-95689714D01*
X146550325Y-95674698D01*
X146583723Y-95663317D01*
X146597368Y-95660754D01*
X146666885Y-95667726D01*
X146721601Y-95711177D01*
X146721605Y-95711183D01*
X146723530Y-95713914D01*
X146744504Y-95765050D01*
X146744826Y-95766990D01*
X146746500Y-95787294D01*
X146746500Y-98922730D01*
X146746499Y-98922748D01*
X146746499Y-99037698D01*
X146746499Y-99046361D01*
X146740601Y-99066446D01*
X146758656Y-99133827D01*
X146758656Y-99133828D01*
X146774129Y-99191576D01*
X146773521Y-99217112D01*
X146798922Y-99261105D01*
X146798934Y-99261124D01*
X146836397Y-99326012D01*
X146866475Y-99378109D01*
X146866481Y-99378117D01*
X146866485Y-99378122D01*
X146987314Y-99498951D01*
X146987359Y-99498994D01*
X150369617Y-102881252D01*
X150390767Y-102909505D01*
X150406654Y-102938599D01*
X150419440Y-102973835D01*
X150447059Y-103112684D01*
X150447060Y-103112688D01*
X150447061Y-103112691D01*
X150447064Y-103112701D01*
X150447067Y-103112709D01*
X150447072Y-103112723D01*
X150507398Y-103258365D01*
X150507403Y-103258374D01*
X150507413Y-103258391D01*
X150595011Y-103389490D01*
X150595012Y-103389491D01*
X150595017Y-103389497D01*
X150706501Y-103500981D01*
X150706507Y-103500986D01*
X150706511Y-103500989D01*
X150837614Y-103588590D01*
X150837627Y-103588597D01*
X150983298Y-103648935D01*
X150983303Y-103648937D01*
X151137953Y-103679699D01*
X151137956Y-103679700D01*
X151137958Y-103679700D01*
X151295644Y-103679700D01*
X151295645Y-103679699D01*
X151450297Y-103648937D01*
X151595979Y-103588594D01*
X151727089Y-103500989D01*
X151838589Y-103389489D01*
X151926194Y-103258379D01*
X151986537Y-103112697D01*
X152017300Y-102958042D01*
X152017300Y-102800358D01*
X152017300Y-102800355D01*
X152017300Y-102800173D01*
X152016865Y-102798172D01*
X151987195Y-102649015D01*
X151986783Y-102646603D01*
X151986539Y-102645711D01*
X151986537Y-102645707D01*
X151986537Y-102645703D01*
X151974864Y-102617522D01*
X151926197Y-102500027D01*
X151926190Y-102500014D01*
X151838589Y-102368911D01*
X151838586Y-102368907D01*
X151838581Y-102368901D01*
X151727097Y-102257417D01*
X151727091Y-102257412D01*
X151727090Y-102257411D01*
X151595991Y-102169813D01*
X151595990Y-102169812D01*
X151595985Y-102169809D01*
X151595972Y-102169802D01*
X151595965Y-102169798D01*
X151450323Y-102109472D01*
X151450309Y-102109467D01*
X151450301Y-102109464D01*
X151450291Y-102109461D01*
X151450288Y-102109460D01*
X151450284Y-102109459D01*
X151312438Y-102082040D01*
X151279153Y-102070298D01*
X151249780Y-102054933D01*
X151219575Y-102032739D01*
X150614937Y-101428101D01*
X149975910Y-100789075D01*
X149954760Y-100760821D01*
X149948107Y-100748638D01*
X149933257Y-100680367D01*
X149957671Y-100614907D01*
X149964275Y-100606086D01*
X149994654Y-100577295D01*
X150006189Y-100569589D01*
X150117689Y-100458089D01*
X150205294Y-100326979D01*
X150265637Y-100181297D01*
X150296400Y-100026642D01*
X150296400Y-99868958D01*
X150296400Y-99868955D01*
X150296400Y-99868773D01*
X150295965Y-99866772D01*
X150270810Y-99740311D01*
X150270809Y-99740308D01*
X150265638Y-99714309D01*
X150265637Y-99714303D01*
X150255647Y-99690185D01*
X150205297Y-99568627D01*
X150205290Y-99568614D01*
X150117689Y-99437511D01*
X150117686Y-99437507D01*
X150117681Y-99437501D01*
X150006197Y-99326017D01*
X150006191Y-99326012D01*
X150006190Y-99326011D01*
X149875091Y-99238413D01*
X149875090Y-99238412D01*
X149875085Y-99238409D01*
X149875072Y-99238402D01*
X149875065Y-99238398D01*
X149729423Y-99178072D01*
X149729409Y-99178067D01*
X149729401Y-99178064D01*
X149729391Y-99178061D01*
X149729388Y-99178060D01*
X149729384Y-99178059D01*
X149591538Y-99150640D01*
X149558253Y-99138898D01*
X149528880Y-99123533D01*
X149498675Y-99101339D01*
X148695126Y-98297790D01*
X148673974Y-98269534D01*
X148661367Y-98246445D01*
X148646200Y-98187020D01*
X148646200Y-96618994D01*
X148651222Y-96584061D01*
X148660564Y-96552245D01*
X148676433Y-96518302D01*
X148752150Y-96404984D01*
X148754168Y-96402227D01*
X148755678Y-96399826D01*
X148757410Y-96394985D01*
X148815437Y-96254897D01*
X148846200Y-96100242D01*
X148846200Y-95942558D01*
X148846200Y-95942555D01*
X148834536Y-95883921D01*
X148832647Y-95848689D01*
X148834041Y-95833111D01*
X148859618Y-95768098D01*
X148863105Y-95763609D01*
X148904925Y-95729100D01*
X148905690Y-95728712D01*
X148958237Y-95715351D01*
X148992108Y-95714384D01*
X149027731Y-95718558D01*
X149093943Y-95736301D01*
X149093944Y-95736301D01*
X149259654Y-95736301D01*
X149261558Y-95736301D01*
X149261621Y-95736300D01*
X156411573Y-95736300D01*
X156446505Y-95741321D01*
X156471749Y-95748734D01*
X156524495Y-95780030D01*
X158206917Y-97462452D01*
X158228067Y-97490705D01*
X158243954Y-97519799D01*
X158256740Y-97555035D01*
X158284359Y-97693884D01*
X158284360Y-97693888D01*
X158284361Y-97693891D01*
X158284364Y-97693901D01*
X158284367Y-97693909D01*
X158284372Y-97693923D01*
X158344698Y-97839565D01*
X158344703Y-97839574D01*
X158344713Y-97839591D01*
X158432311Y-97970690D01*
X158432312Y-97970691D01*
X158432317Y-97970697D01*
X158543801Y-98082181D01*
X158543807Y-98082186D01*
X158543811Y-98082189D01*
X158674914Y-98169790D01*
X158674927Y-98169797D01*
X158805449Y-98223860D01*
X158820603Y-98230137D01*
X158969413Y-98259737D01*
X158971171Y-98260141D01*
X158971412Y-98260276D01*
X158975255Y-98260900D01*
X159132944Y-98260900D01*
X159137064Y-98260900D01*
X159144914Y-98258518D01*
X159287597Y-98230137D01*
X159433279Y-98169794D01*
X159564389Y-98082189D01*
X159675889Y-97970689D01*
X159763494Y-97839579D01*
X159823837Y-97693897D01*
X159839528Y-97615016D01*
X159846501Y-97579961D01*
X159846501Y-97579960D01*
X159852180Y-97551411D01*
X159858815Y-97529179D01*
X159867077Y-97508716D01*
X159910424Y-97453926D01*
X159918419Y-97448267D01*
X159965851Y-97427870D01*
X160090197Y-97403137D01*
X160092230Y-97402294D01*
X160093890Y-97402016D01*
X160096028Y-97401368D01*
X160096111Y-97401644D01*
X160147211Y-97393078D01*
X160147510Y-97393097D01*
X160147517Y-97393096D01*
X160152614Y-97393406D01*
X160218336Y-97417121D01*
X160260803Y-97472604D01*
X160269013Y-97521591D01*
X160268454Y-97537288D01*
X160266150Y-97557067D01*
X160235500Y-97711150D01*
X160235500Y-97711153D01*
X160235500Y-97868846D01*
X160235500Y-97868848D01*
X160235499Y-97868848D01*
X160266257Y-98023471D01*
X160266264Y-98023502D01*
X160326598Y-98169165D01*
X160326603Y-98169174D01*
X160326613Y-98169191D01*
X160414211Y-98300290D01*
X160414212Y-98300291D01*
X160414217Y-98300297D01*
X160525701Y-98411781D01*
X160525707Y-98411786D01*
X160525711Y-98411789D01*
X160656814Y-98499390D01*
X160656827Y-98499397D01*
X160792718Y-98555684D01*
X160802503Y-98559737D01*
X160802507Y-98559737D01*
X160802510Y-98559739D01*
X160886279Y-98576401D01*
X160957153Y-98590499D01*
X160957156Y-98590500D01*
X160957158Y-98590500D01*
X161114844Y-98590500D01*
X161114845Y-98590499D01*
X161269497Y-98559737D01*
X161410189Y-98501461D01*
X161415172Y-98499397D01*
X161415172Y-98499396D01*
X161415179Y-98499394D01*
X161546289Y-98411789D01*
X161657789Y-98300289D01*
X161745394Y-98169179D01*
X161805737Y-98023497D01*
X161836500Y-97868842D01*
X161836500Y-97711158D01*
X161836500Y-97711155D01*
X161836500Y-97710973D01*
X161836065Y-97708971D01*
X161816176Y-97608983D01*
X161805738Y-97556508D01*
X161805737Y-97556507D01*
X161805737Y-97556503D01*
X161774791Y-97481791D01*
X161745397Y-97410827D01*
X161745390Y-97410814D01*
X161657789Y-97279711D01*
X161657786Y-97279707D01*
X161657781Y-97279701D01*
X161546297Y-97168217D01*
X161546291Y-97168212D01*
X161546290Y-97168211D01*
X161415191Y-97080613D01*
X161415190Y-97080612D01*
X161415185Y-97080609D01*
X161415172Y-97080602D01*
X161415165Y-97080598D01*
X161269502Y-97020264D01*
X161269471Y-97020257D01*
X161114847Y-96989500D01*
X161114845Y-96989500D01*
X161114842Y-96989500D01*
X160957158Y-96989500D01*
X160957155Y-96989500D01*
X160957150Y-96989500D01*
X160802525Y-97020256D01*
X160802492Y-97020265D01*
X160799065Y-97021438D01*
X160772203Y-97027396D01*
X160760893Y-97028612D01*
X160692133Y-97016207D01*
X160640996Y-96968597D01*
X160623716Y-96900901D01*
X160623739Y-96900233D01*
X160624244Y-96886096D01*
X160626546Y-96866345D01*
X160657200Y-96712242D01*
X160657200Y-96554558D01*
X160657200Y-96554555D01*
X160657200Y-96554373D01*
X160656765Y-96552371D01*
X160652651Y-96531688D01*
X160626439Y-96399910D01*
X160626437Y-96399905D01*
X160626437Y-96399903D01*
X160577460Y-96281661D01*
X160566097Y-96254227D01*
X160566090Y-96254214D01*
X160478489Y-96123111D01*
X160478486Y-96123107D01*
X160478481Y-96123101D01*
X160366997Y-96011617D01*
X160366991Y-96011612D01*
X160366990Y-96011611D01*
X160235891Y-95924013D01*
X160235890Y-95924012D01*
X160235885Y-95924009D01*
X160235872Y-95924002D01*
X160235865Y-95923998D01*
X160090223Y-95863672D01*
X160090209Y-95863667D01*
X160090201Y-95863664D01*
X160090191Y-95863661D01*
X160090186Y-95863660D01*
X160090183Y-95863659D01*
X159952336Y-95836239D01*
X159919054Y-95824498D01*
X159889680Y-95809133D01*
X159859473Y-95786938D01*
X158449328Y-94376793D01*
X158449319Y-94376783D01*
X158396155Y-94323619D01*
X158326117Y-94253581D01*
X158326116Y-94253580D01*
X158258114Y-94214320D01*
X158256053Y-94213020D01*
X158251889Y-94208297D01*
X158246830Y-94203898D01*
X158224242Y-94194763D01*
X158189186Y-94174523D01*
X158126950Y-94157847D01*
X158036457Y-94133599D01*
X158036454Y-94133599D01*
X157868843Y-94133599D01*
X157868780Y-94133600D01*
X152988571Y-94133600D01*
X152953636Y-94128577D01*
X152942782Y-94125390D01*
X152884004Y-94087616D01*
X152854979Y-94024060D01*
X152864922Y-93954903D01*
X152868112Y-93947919D01*
X152893220Y-93911758D01*
X152936386Y-93868592D01*
X152936389Y-93868589D01*
X153023994Y-93737479D01*
X153084337Y-93591797D01*
X153115100Y-93437142D01*
X153115100Y-93279458D01*
X153115100Y-93279455D01*
X153115100Y-93279272D01*
X153114665Y-93277272D01*
X153109372Y-93250664D01*
X153109372Y-93250662D01*
X153084339Y-93124810D01*
X153084336Y-93124801D01*
X153075960Y-93104580D01*
X153053680Y-93050789D01*
X153023997Y-92979127D01*
X153023990Y-92979114D01*
X153006149Y-92952413D01*
X152945904Y-92862249D01*
X152930671Y-92830411D01*
X152920765Y-92798774D01*
X152915100Y-92761722D01*
X152915100Y-91362076D01*
X152915100Y-91362075D01*
X152915099Y-91362068D01*
X152905377Y-91325784D01*
X152874177Y-91209344D01*
X152825708Y-91125394D01*
X152795120Y-91072413D01*
X152683316Y-90960609D01*
X152683315Y-90960608D01*
X152678985Y-90956278D01*
X152677963Y-90955256D01*
X152677920Y-90955214D01*
X152659105Y-90936399D01*
X152639398Y-90910717D01*
X152623627Y-90883400D01*
X152618088Y-90870027D01*
X152537225Y-90729968D01*
X152537222Y-90729963D01*
X152534524Y-90725290D01*
X152534521Y-90725286D01*
X152534520Y-90725284D01*
X152422716Y-90613480D01*
X152422715Y-90613479D01*
X152418385Y-90609149D01*
X152417363Y-90608127D01*
X152417320Y-90608085D01*
X151563010Y-89753775D01*
X151483954Y-89708131D01*
X151471723Y-89701069D01*
X151426079Y-89674717D01*
X151426076Y-89674716D01*
X151426072Y-89674715D01*
X151426058Y-89674710D01*
X151368060Y-89659169D01*
X151335623Y-89645279D01*
X151322277Y-89637145D01*
X151275278Y-89585449D01*
X151275141Y-89585168D01*
X151274917Y-89584702D01*
X151274885Y-89584635D01*
X151263116Y-89522049D01*
X151263904Y-89511393D01*
X151269634Y-89482223D01*
X151284940Y-89435118D01*
X151314500Y-89248486D01*
X151314500Y-89059513D01*
X151284940Y-88872881D01*
X151257846Y-88789497D01*
X151242538Y-88742385D01*
X151228049Y-88697791D01*
X151226986Y-88694022D01*
X151225993Y-88692025D01*
X151224194Y-88688312D01*
X151223262Y-88686720D01*
X151146930Y-88536911D01*
X151146930Y-88536910D01*
X151146928Y-88536908D01*
X151140760Y-88524801D01*
X151029690Y-88371927D01*
X150896073Y-88238310D01*
X150743199Y-88127240D01*
X150574836Y-88041454D01*
X150395118Y-87983059D01*
X150387270Y-87981816D01*
X150208491Y-87953500D01*
X150208486Y-87953500D01*
X150208481Y-87953500D01*
X150019519Y-87953500D01*
X150019514Y-87953500D01*
X150019509Y-87953500D01*
X149832886Y-87983058D01*
X149832884Y-87983058D01*
X149832881Y-87983059D01*
X149653163Y-88041454D01*
X149605358Y-88065812D01*
X149484800Y-88127239D01*
X149436161Y-88162579D01*
X149343798Y-88229685D01*
X149336417Y-88233818D01*
X149193818Y-88376417D01*
X149189685Y-88383798D01*
X149151340Y-88436575D01*
X149151339Y-88436574D01*
X149091228Y-88519311D01*
X149087240Y-88524800D01*
X149087238Y-88524802D01*
X149087236Y-88524807D01*
X149081069Y-88536911D01*
X149001454Y-88693163D01*
X148943059Y-88872881D01*
X148943059Y-88872882D01*
X148943058Y-88872886D01*
X148913500Y-89059507D01*
X148913500Y-89248491D01*
X148943058Y-89435112D01*
X148943059Y-89435118D01*
X149001454Y-89614836D01*
X149048990Y-89708130D01*
X149074399Y-89757999D01*
X149074678Y-89758545D01*
X149087240Y-89783199D01*
X149198310Y-89936073D01*
X149331927Y-90069690D01*
X149418229Y-90132393D01*
X149484796Y-90180757D01*
X149484797Y-90180757D01*
X149484801Y-90180760D01*
X149564347Y-90221290D01*
X149646718Y-90263261D01*
X149648310Y-90264193D01*
X149652034Y-90265997D01*
X149654025Y-90266986D01*
X149657784Y-90268046D01*
X149713839Y-90286260D01*
X149713840Y-90286261D01*
X149713841Y-90286261D01*
X149832881Y-90324940D01*
X149878267Y-90332128D01*
X149902471Y-90335961D01*
X149936185Y-90346386D01*
X149950314Y-90353084D01*
X150002454Y-90399581D01*
X150005938Y-90405176D01*
X150024680Y-90470724D01*
X150024680Y-90724349D01*
X150024679Y-90724353D01*
X150024679Y-90882467D01*
X150024680Y-90882470D01*
X150024680Y-91073554D01*
X150019656Y-91108491D01*
X150010316Y-91140298D01*
X149994442Y-91174252D01*
X149915787Y-91291966D01*
X149915780Y-91291982D01*
X149885083Y-91366089D01*
X149867076Y-91396440D01*
X149858369Y-91407245D01*
X149800977Y-91447094D01*
X149731152Y-91449588D01*
X149726075Y-91448293D01*
X149669061Y-91415826D01*
X147469034Y-89215799D01*
X147447885Y-89187549D01*
X147439700Y-89172559D01*
X147424688Y-89106939D01*
X147425353Y-89093644D01*
X147431267Y-89061525D01*
X147431923Y-89059507D01*
X147474940Y-88927118D01*
X147504500Y-88740486D01*
X147504500Y-88551513D01*
X147474940Y-88364881D01*
X147438502Y-88252737D01*
X147438502Y-88252736D01*
X147438502Y-88252735D01*
X147431012Y-88229685D01*
X147416547Y-88185168D01*
X147416545Y-88185165D01*
X147416545Y-88185163D01*
X147414299Y-88180755D01*
X147413990Y-88179963D01*
X147413263Y-88178722D01*
X147343321Y-88041454D01*
X147330760Y-88016801D01*
X147330758Y-88016798D01*
X147330757Y-88016796D01*
X147281011Y-87948328D01*
X147219690Y-87863927D01*
X147086073Y-87730310D01*
X146933199Y-87619240D01*
X146764836Y-87533454D01*
X146585118Y-87475059D01*
X146576405Y-87473679D01*
X146398491Y-87445500D01*
X146398486Y-87445500D01*
X146398481Y-87445500D01*
X146209519Y-87445500D01*
X146209514Y-87445500D01*
X146209509Y-87445500D01*
X146049207Y-87470889D01*
X146013924Y-87471394D01*
X146000159Y-87469616D01*
X145936194Y-87441506D01*
X145897582Y-87383279D01*
X145893731Y-87370824D01*
X145888200Y-87334204D01*
X145888200Y-87186226D01*
X145893222Y-87151293D01*
X145894774Y-87146008D01*
X145900417Y-87126788D01*
X145938190Y-87068012D01*
X145959959Y-87052896D01*
X145978359Y-87042849D01*
X146034251Y-87027730D01*
X146038731Y-87027602D01*
X146061643Y-87029078D01*
X146073006Y-87030878D01*
X146209514Y-87052500D01*
X146209519Y-87052500D01*
X146398485Y-87052500D01*
X146398486Y-87052500D01*
X146585118Y-87022940D01*
X146610783Y-87014600D01*
X146613660Y-87013666D01*
X146613660Y-87013665D01*
X146613669Y-87013663D01*
X146764832Y-86964547D01*
X146933199Y-86878760D01*
X147086073Y-86767690D01*
X147219690Y-86634073D01*
X147330760Y-86481199D01*
X147416547Y-86312832D01*
X147474940Y-86133118D01*
X147482448Y-86085713D01*
X147504500Y-85946486D01*
X147504500Y-85757513D01*
X147477165Y-85584934D01*
X147475795Y-85559327D01*
X147475862Y-85557990D01*
X147476756Y-85540162D01*
X147499773Y-85474195D01*
X147554800Y-85431143D01*
X147563565Y-85427661D01*
X147609347Y-85418900D01*
X149087373Y-85418900D01*
X149122305Y-85423921D01*
X149147549Y-85431334D01*
X149200295Y-85462630D01*
X149243117Y-85505452D01*
X149264267Y-85533705D01*
X149280154Y-85562799D01*
X149292940Y-85598035D01*
X149320559Y-85736884D01*
X149320560Y-85736888D01*
X149320561Y-85736891D01*
X149320564Y-85736901D01*
X149320567Y-85736909D01*
X149320572Y-85736923D01*
X149380898Y-85882565D01*
X149380903Y-85882574D01*
X149380913Y-85882591D01*
X149468511Y-86013690D01*
X149468512Y-86013691D01*
X149468517Y-86013697D01*
X149580001Y-86125181D01*
X149580007Y-86125186D01*
X149580011Y-86125189D01*
X149711114Y-86212790D01*
X149711127Y-86212797D01*
X149856465Y-86272997D01*
X149856803Y-86273137D01*
X150004691Y-86302554D01*
X150005520Y-86302731D01*
X150005884Y-86302928D01*
X150006547Y-86303103D01*
X150011455Y-86303900D01*
X150169144Y-86303900D01*
X150173264Y-86303900D01*
X150181114Y-86301518D01*
X150323797Y-86273137D01*
X150469479Y-86212794D01*
X150600589Y-86125189D01*
X150712089Y-86013689D01*
X150799694Y-85882579D01*
X150860037Y-85736897D01*
X150890800Y-85582242D01*
X150890800Y-85424558D01*
X150890800Y-85424555D01*
X150890800Y-85424373D01*
X150890365Y-85422372D01*
X150884157Y-85391163D01*
X150884157Y-85391162D01*
X150860038Y-85269908D01*
X150860037Y-85269907D01*
X150860037Y-85269903D01*
X150823384Y-85181416D01*
X150814657Y-85147221D01*
X150812986Y-85131679D01*
X150825391Y-85062920D01*
X150829072Y-85055566D01*
X150867068Y-85010762D01*
X150896073Y-84989690D01*
X151029690Y-84856073D01*
X151140760Y-84703199D01*
X151226547Y-84534832D01*
X151284940Y-84355118D01*
X151300191Y-84258826D01*
X151300192Y-84258823D01*
X151314500Y-84168485D01*
X151314500Y-83979513D01*
X151301867Y-83899753D01*
X151284940Y-83792881D01*
X151226545Y-83613163D01*
X151219544Y-83599424D01*
X151181290Y-83524347D01*
X151181289Y-83524345D01*
X151154406Y-83471583D01*
X151140760Y-83444801D01*
X151140758Y-83444798D01*
X151140757Y-83444796D01*
X151108514Y-83400418D01*
X151029690Y-83291927D01*
X150896073Y-83158310D01*
X150743199Y-83047240D01*
X150718886Y-83034852D01*
X150574836Y-82961454D01*
X150395118Y-82903059D01*
X150389101Y-82902106D01*
X150208491Y-82873500D01*
X150208486Y-82873500D01*
X150208481Y-82873500D01*
X150019519Y-82873500D01*
X150019514Y-82873500D01*
X150019509Y-82873500D01*
X149832886Y-82903058D01*
X149832884Y-82903058D01*
X149832881Y-82903059D01*
X149653163Y-82961454D01*
X149592982Y-82992118D01*
X149484799Y-83047240D01*
X149397579Y-83110610D01*
X149397578Y-83110610D01*
X149343794Y-83149686D01*
X149336419Y-83153816D01*
X149193817Y-83296418D01*
X149189688Y-83303792D01*
X149181606Y-83314917D01*
X149181603Y-83314921D01*
X149087244Y-83444794D01*
X149087240Y-83444800D01*
X149087238Y-83444802D01*
X149087236Y-83444807D01*
X149066855Y-83484808D01*
X149001454Y-83613163D01*
X148943059Y-83792881D01*
X148943058Y-83792884D01*
X148943058Y-83792886D01*
X148913500Y-83979507D01*
X148913500Y-84076070D01*
X148908475Y-84111014D01*
X148904070Y-84126012D01*
X148866327Y-84184755D01*
X148864958Y-84185942D01*
X148810097Y-84213418D01*
X148802539Y-84215063D01*
X148776168Y-84217900D01*
X145977421Y-84217900D01*
X145977358Y-84217899D01*
X145975454Y-84217899D01*
X145967858Y-84217899D01*
X145809743Y-84217899D01*
X145809742Y-84217899D01*
X145749870Y-84233941D01*
X145749871Y-84233942D01*
X145657017Y-84258822D01*
X145657015Y-84258822D01*
X145657014Y-84258823D01*
X145657012Y-84258823D01*
X145656943Y-84258853D01*
X145656134Y-84259330D01*
X145520098Y-84337870D01*
X145520094Y-84337872D01*
X145520090Y-84337875D01*
X145520082Y-84337881D01*
X145520078Y-84337884D01*
X145520076Y-84337885D01*
X144389277Y-85468685D01*
X144389276Y-85468686D01*
X144370018Y-85502047D01*
X144370015Y-85502053D01*
X144361537Y-85516737D01*
X144361536Y-85516736D01*
X144310224Y-85605611D01*
X144310223Y-85605615D01*
X144269299Y-85758343D01*
X144269299Y-85758345D01*
X144269299Y-85928800D01*
X144269300Y-85928851D01*
X144269300Y-93185494D01*
X144264275Y-93220435D01*
X144260364Y-93233752D01*
X144222587Y-93292528D01*
X144159034Y-93321549D01*
X144155730Y-93322024D01*
X144100594Y-93317483D01*
X144098715Y-93316887D01*
X144079911Y-93309175D01*
X144027313Y-93282375D01*
X144025699Y-93281430D01*
X144020853Y-93279083D01*
X143826161Y-93215825D01*
X143826162Y-93215825D01*
X143673886Y-93191707D01*
X143623964Y-93183800D01*
X143623963Y-93183800D01*
X143419237Y-93183800D01*
X143419236Y-93183800D01*
X143408541Y-93185494D01*
X143217036Y-93215825D01*
X143022368Y-93279075D01*
X143022349Y-93279082D01*
X143022348Y-93279082D01*
X142839942Y-93372023D01*
X142839934Y-93372028D01*
X142801211Y-93400162D01*
X142762487Y-93428298D01*
X142686187Y-93483733D01*
X142678806Y-93487866D01*
X142525066Y-93641606D01*
X142520933Y-93648987D01*
X142469392Y-93719926D01*
X142469391Y-93719925D01*
X142409225Y-93802737D01*
X142390177Y-93840121D01*
X142369843Y-93868966D01*
X142360953Y-93878379D01*
X142300611Y-93913602D01*
X142230806Y-93910610D01*
X142177085Y-93874435D01*
X142171015Y-93867429D01*
X142154250Y-93842530D01*
X142133972Y-93802736D01*
X142088862Y-93740648D01*
X142013642Y-93637116D01*
X141868884Y-93492358D01*
X141703263Y-93372027D01*
X141520857Y-93279085D01*
X141520854Y-93279084D01*
X141520853Y-93279083D01*
X141520850Y-93279082D01*
X141520830Y-93279075D01*
X141326161Y-93215825D01*
X141326162Y-93215825D01*
X141173886Y-93191707D01*
X141123964Y-93183800D01*
X141123963Y-93183800D01*
X140919237Y-93183800D01*
X140919236Y-93183800D01*
X140908541Y-93185494D01*
X140717036Y-93215825D01*
X140522368Y-93279075D01*
X140522349Y-93279082D01*
X140522348Y-93279082D01*
X140339942Y-93372023D01*
X140339934Y-93372028D01*
X140301211Y-93400162D01*
X140262487Y-93428298D01*
X140186187Y-93483733D01*
X140178806Y-93487866D01*
X140025066Y-93641606D01*
X140020933Y-93648987D01*
X139969392Y-93719926D01*
X139969391Y-93719925D01*
X139909225Y-93802737D01*
X139890177Y-93840121D01*
X139869843Y-93868966D01*
X139860953Y-93878379D01*
X139800611Y-93913602D01*
X139730806Y-93910610D01*
X139677085Y-93874435D01*
X139671015Y-93867429D01*
X139654250Y-93842530D01*
X139633972Y-93802736D01*
X139588862Y-93740648D01*
X139513642Y-93637116D01*
X139368884Y-93492358D01*
X139203263Y-93372027D01*
X139020857Y-93279085D01*
X139020854Y-93279084D01*
X139020853Y-93279083D01*
X139020850Y-93279082D01*
X139020830Y-93279075D01*
X138826161Y-93215825D01*
X138826162Y-93215825D01*
X138673886Y-93191707D01*
X138623964Y-93183800D01*
X138623963Y-93183800D01*
X138419237Y-93183800D01*
X138419236Y-93183800D01*
X138408541Y-93185494D01*
X138217036Y-93215825D01*
X138022368Y-93279075D01*
X138022349Y-93279082D01*
X138022348Y-93279082D01*
X138022342Y-93279084D01*
X138022342Y-93279085D01*
X138015391Y-93282627D01*
X137839935Y-93372027D01*
X137674318Y-93492356D01*
X137564006Y-93602668D01*
X137535745Y-93623822D01*
X137523790Y-93630349D01*
X137455517Y-93645197D01*
X137390054Y-93620776D01*
X137351120Y-93572014D01*
X137347755Y-93564466D01*
X137339390Y-93538162D01*
X137330279Y-93492358D01*
X137317538Y-93428308D01*
X137317537Y-93428307D01*
X137317298Y-93427102D01*
X137315210Y-93422686D01*
X137310641Y-93411655D01*
X137310641Y-93411654D01*
X137273319Y-93321549D01*
X137257197Y-93282627D01*
X137257190Y-93282614D01*
X137169589Y-93151511D01*
X137169586Y-93151507D01*
X137169581Y-93151501D01*
X137058097Y-93040017D01*
X137058091Y-93040012D01*
X137058090Y-93040011D01*
X136926991Y-92952413D01*
X136926990Y-92952412D01*
X136926985Y-92952409D01*
X136926972Y-92952402D01*
X136926965Y-92952398D01*
X136781302Y-92892064D01*
X136781271Y-92892057D01*
X136626647Y-92861300D01*
X136626645Y-92861300D01*
X136626642Y-92861300D01*
X136468958Y-92861300D01*
X136468955Y-92861300D01*
X136468953Y-92861300D01*
X136314327Y-92892057D01*
X136314296Y-92892064D01*
X136168633Y-92952398D01*
X136168624Y-92952403D01*
X136168607Y-92952413D01*
X136037508Y-93040011D01*
X136037507Y-93040012D01*
X136037501Y-93040017D01*
X135926017Y-93151501D01*
X135926012Y-93151507D01*
X135926011Y-93151508D01*
X135838413Y-93282607D01*
X135838403Y-93282624D01*
X135838398Y-93282633D01*
X135778064Y-93428296D01*
X135778057Y-93428327D01*
X135747300Y-93582950D01*
X135747300Y-93582953D01*
X135747300Y-93740646D01*
X135747300Y-93740648D01*
X135747299Y-93740648D01*
X132518800Y-93740648D01*
X132518800Y-91013594D01*
X132523822Y-90978661D01*
X132524744Y-90975522D01*
X132533164Y-90946845D01*
X132549033Y-90912902D01*
X132624750Y-90799584D01*
X132626768Y-90796827D01*
X132628278Y-90794426D01*
X132630010Y-90789585D01*
X132688037Y-90649497D01*
X132718800Y-90494842D01*
X132718800Y-90337158D01*
X132718800Y-90337155D01*
X132718800Y-90336970D01*
X132718365Y-90334970D01*
X132716371Y-90324942D01*
X132688038Y-90182508D01*
X132688037Y-90182507D01*
X132688037Y-90182503D01*
X132688032Y-90182490D01*
X132687320Y-90180769D01*
X132687320Y-90180770D01*
X132627698Y-90036829D01*
X132627695Y-90036824D01*
X132627690Y-90036814D01*
X132563531Y-89940793D01*
X132549604Y-89919949D01*
X132534371Y-89888111D01*
X132524465Y-89856474D01*
X132518800Y-89819422D01*
X132518800Y-88551507D01*
X140023500Y-88551507D01*
X140023500Y-88740491D01*
X140044565Y-88873487D01*
X140053059Y-88927118D01*
X140111454Y-89106836D01*
X140183629Y-89248486D01*
X140197240Y-89275199D01*
X140308310Y-89428073D01*
X140441927Y-89561690D01*
X140474626Y-89585447D01*
X140594796Y-89672757D01*
X140594797Y-89672757D01*
X140594801Y-89672760D01*
X140674347Y-89713290D01*
X140756722Y-89755263D01*
X140758320Y-89756199D01*
X140762037Y-89757999D01*
X140764022Y-89758985D01*
X140767784Y-89760047D01*
X140791034Y-89767601D01*
X140839037Y-89783198D01*
X140839038Y-89783199D01*
X140873653Y-89794446D01*
X140942881Y-89816940D01*
X141129514Y-89846500D01*
X141129519Y-89846500D01*
X141318485Y-89846500D01*
X141318486Y-89846500D01*
X141505118Y-89816940D01*
X141505124Y-89816937D01*
X141505133Y-89816936D01*
X141505418Y-89816842D01*
X141684832Y-89758547D01*
X141853199Y-89672760D01*
X142006073Y-89561690D01*
X142139690Y-89428073D01*
X142250760Y-89275199D01*
X142336547Y-89106832D01*
X142394940Y-88927118D01*
X142424500Y-88740486D01*
X142424500Y-88551513D01*
X142394940Y-88364881D01*
X142358502Y-88252737D01*
X142358502Y-88252736D01*
X142358502Y-88252735D01*
X142351012Y-88229685D01*
X142336547Y-88185168D01*
X142336545Y-88185165D01*
X142336545Y-88185163D01*
X142334299Y-88180755D01*
X142333990Y-88179963D01*
X142333263Y-88178722D01*
X142263321Y-88041454D01*
X142250760Y-88016801D01*
X142250758Y-88016798D01*
X142250757Y-88016796D01*
X142201011Y-87948328D01*
X142139690Y-87863927D01*
X142006073Y-87730310D01*
X141853199Y-87619240D01*
X141684836Y-87533454D01*
X141505118Y-87475059D01*
X141496405Y-87473679D01*
X141318491Y-87445500D01*
X141318486Y-87445500D01*
X141318481Y-87445500D01*
X141129519Y-87445500D01*
X141129514Y-87445500D01*
X141129509Y-87445500D01*
X140942886Y-87475058D01*
X140942884Y-87475058D01*
X140942881Y-87475059D01*
X140763163Y-87533454D01*
X140724351Y-87553230D01*
X140594799Y-87619240D01*
X140507579Y-87682610D01*
X140507578Y-87682610D01*
X140453794Y-87721686D01*
X140446419Y-87725816D01*
X140303816Y-87868419D01*
X140299686Y-87875794D01*
X140260610Y-87929578D01*
X140260610Y-87929579D01*
X140197240Y-88016799D01*
X140186014Y-88038832D01*
X140111454Y-88185163D01*
X140053059Y-88364881D01*
X140053059Y-88364883D01*
X140053058Y-88364886D01*
X140023500Y-88551507D01*
X132518800Y-88551507D01*
X132518800Y-86867145D01*
X132518800Y-86867143D01*
X132497927Y-86789243D01*
X132477877Y-86714415D01*
X132428241Y-86628443D01*
X132398820Y-86577484D01*
X132287016Y-86465680D01*
X132287015Y-86465679D01*
X132282685Y-86461349D01*
X132281663Y-86460327D01*
X132281620Y-86460285D01*
X131578842Y-85757507D01*
X140023500Y-85757507D01*
X140023500Y-85946491D01*
X140045551Y-86085713D01*
X140053059Y-86133118D01*
X140111454Y-86312836D01*
X140163187Y-86414367D01*
X140186583Y-86460285D01*
X140187121Y-86461339D01*
X140193586Y-86474027D01*
X140197241Y-86481200D01*
X140197242Y-86481203D01*
X140243419Y-86544759D01*
X140308310Y-86634073D01*
X140441927Y-86767690D01*
X140528229Y-86830393D01*
X140594796Y-86878757D01*
X140594797Y-86878757D01*
X140594801Y-86878760D01*
X140674347Y-86919290D01*
X140756718Y-86961261D01*
X140758310Y-86962193D01*
X140762034Y-86963997D01*
X140764024Y-86964986D01*
X140767777Y-86966044D01*
X140831689Y-86986811D01*
X140942881Y-87022940D01*
X141129514Y-87052500D01*
X141129519Y-87052500D01*
X141318485Y-87052500D01*
X141318486Y-87052500D01*
X141505118Y-87022940D01*
X141530783Y-87014600D01*
X141533660Y-87013666D01*
X141533660Y-87013665D01*
X141533669Y-87013663D01*
X141684832Y-86964547D01*
X141853199Y-86878760D01*
X142006073Y-86767690D01*
X142139690Y-86634073D01*
X142250760Y-86481199D01*
X142336547Y-86312832D01*
X142394940Y-86133118D01*
X142402448Y-86085713D01*
X142424500Y-85946486D01*
X142424500Y-85757513D01*
X142394940Y-85570881D01*
X142363525Y-85474195D01*
X142357740Y-85456391D01*
X142357740Y-85456390D01*
X142351800Y-85438112D01*
X142336547Y-85391168D01*
X142336545Y-85391165D01*
X142336545Y-85391163D01*
X142334299Y-85386755D01*
X142333990Y-85385963D01*
X142333263Y-85384722D01*
X142274763Y-85269910D01*
X142250760Y-85222801D01*
X142139690Y-85069927D01*
X142006073Y-84936310D01*
X141853199Y-84825240D01*
X141803398Y-84799865D01*
X141684836Y-84739454D01*
X141505118Y-84681059D01*
X141505112Y-84681058D01*
X141318491Y-84651500D01*
X141318486Y-84651500D01*
X141318481Y-84651500D01*
X141129519Y-84651500D01*
X141129514Y-84651500D01*
X141129509Y-84651500D01*
X140942886Y-84681058D01*
X140942884Y-84681058D01*
X140942881Y-84681059D01*
X140763163Y-84739454D01*
X140706334Y-84768410D01*
X140594800Y-84825239D01*
X140552360Y-84856075D01*
X140453798Y-84927685D01*
X140446417Y-84931818D01*
X140303817Y-85074418D01*
X140299685Y-85081797D01*
X140268863Y-85124220D01*
X140268863Y-85124221D01*
X140197240Y-85222800D01*
X140111454Y-85391163D01*
X140053059Y-85570881D01*
X140053059Y-85570883D01*
X140053058Y-85570886D01*
X140023500Y-85757507D01*
X131578842Y-85757507D01*
X130603109Y-84781774D01*
X130581957Y-84753518D01*
X130575751Y-84742152D01*
X130560900Y-84673878D01*
X130585318Y-84608415D01*
X130636313Y-84568509D01*
X130644863Y-84564896D01*
X130673712Y-84556648D01*
X130691398Y-84553846D01*
X130691407Y-84553847D01*
X130691407Y-84553846D01*
X130796445Y-84537209D01*
X130829718Y-84531940D01*
X131009432Y-84473547D01*
X131177799Y-84387760D01*
X131330673Y-84276690D01*
X131464290Y-84143073D01*
X131575360Y-83990199D01*
X131661147Y-83821832D01*
X131719540Y-83642118D01*
X131720668Y-83634995D01*
X131749100Y-83455486D01*
X131749100Y-83266552D01*
X133216800Y-83266552D01*
X133216800Y-83455447D01*
X133225019Y-83507341D01*
X133246348Y-83642003D01*
X133304712Y-83821634D01*
X133304713Y-83821636D01*
X133384007Y-83977257D01*
X133390466Y-83989933D01*
X133408916Y-84015328D01*
X133916906Y-83507339D01*
X133978226Y-83473856D01*
X134047918Y-83478840D01*
X134103851Y-83520712D01*
X134111971Y-83533022D01*
X134136727Y-83575901D01*
X134136729Y-83575904D01*
X134136730Y-83575905D01*
X134201895Y-83641070D01*
X134244776Y-83665827D01*
X134292991Y-83716393D01*
X134306215Y-83785000D01*
X134280247Y-83849865D01*
X134270457Y-83860895D01*
X133762469Y-84368881D01*
X133762469Y-84368882D01*
X133762473Y-84368886D01*
X133787856Y-84387327D01*
X133787859Y-84387329D01*
X133956162Y-84473085D01*
X134135797Y-84531451D01*
X134322353Y-84561000D01*
X134511246Y-84561000D01*
X134511247Y-84561000D01*
X134697802Y-84531451D01*
X134877437Y-84473085D01*
X135045737Y-84387331D01*
X135071128Y-84368883D01*
X135071128Y-84368882D01*
X134827456Y-84125210D01*
X134563142Y-83860895D01*
X134529657Y-83799572D01*
X134534641Y-83729880D01*
X134576513Y-83673947D01*
X134588817Y-83665830D01*
X134631705Y-83641070D01*
X134696870Y-83575905D01*
X134721628Y-83533021D01*
X134772191Y-83484808D01*
X134840797Y-83471583D01*
X134905663Y-83497549D01*
X134916695Y-83507341D01*
X135424682Y-84015328D01*
X135424683Y-84015328D01*
X135443131Y-83989937D01*
X135528885Y-83821637D01*
X135587251Y-83642002D01*
X135616800Y-83455447D01*
X135616800Y-83266552D01*
X135587251Y-83079997D01*
X135528885Y-82900362D01*
X135443129Y-82732059D01*
X135439687Y-82727321D01*
X135424686Y-82706673D01*
X135424682Y-82706669D01*
X135424681Y-82706669D01*
X134916695Y-83214656D01*
X134855372Y-83248141D01*
X134785681Y-83243157D01*
X134729747Y-83201286D01*
X134721627Y-83188975D01*
X134696872Y-83146098D01*
X134696868Y-83146093D01*
X134631706Y-83080931D01*
X134631698Y-83080925D01*
X134588824Y-83056172D01*
X134540608Y-83005606D01*
X134527384Y-82936999D01*
X134553352Y-82872134D01*
X134563142Y-82861104D01*
X134640072Y-82784174D01*
X135071128Y-82353116D01*
X135045733Y-82334666D01*
X135039435Y-82331457D01*
X134877436Y-82248913D01*
X134877434Y-82248912D01*
X134697803Y-82190548D01*
X134604524Y-82175774D01*
X134511247Y-82161000D01*
X134511246Y-82161000D01*
X134322354Y-82161000D01*
X134322353Y-82161000D01*
X134260167Y-82170849D01*
X134135795Y-82190548D01*
X133956164Y-82248912D01*
X133956161Y-82248913D01*
X133787857Y-82334670D01*
X133787571Y-82334846D01*
X133787440Y-82334882D01*
X133783519Y-82336881D01*
X133783121Y-82336100D01*
X133767717Y-82340444D01*
X133762468Y-82353116D01*
X134270457Y-82861104D01*
X134303942Y-82922427D01*
X134298958Y-82992118D01*
X134257087Y-83048052D01*
X134244776Y-83056172D01*
X134201898Y-83080927D01*
X134201893Y-83080931D01*
X134136731Y-83146093D01*
X134136727Y-83146098D01*
X134111972Y-83188976D01*
X134061405Y-83237192D01*
X133992798Y-83250414D01*
X133927933Y-83224446D01*
X133916904Y-83214657D01*
X133408916Y-82706668D01*
X133396244Y-82711917D01*
X133391900Y-82727321D01*
X133392681Y-82727719D01*
X133390682Y-82731640D01*
X133390646Y-82731771D01*
X133390470Y-82732057D01*
X133304713Y-82900361D01*
X133304712Y-82900364D01*
X133246348Y-83079995D01*
X133224818Y-83215930D01*
X133216800Y-83266552D01*
X131749100Y-83266552D01*
X131749100Y-83266513D01*
X131719540Y-83079881D01*
X131691024Y-82992118D01*
X131681060Y-82961452D01*
X131681060Y-82961451D01*
X131673114Y-82936999D01*
X131661147Y-82900168D01*
X131661145Y-82900165D01*
X131661145Y-82900163D01*
X131658893Y-82895744D01*
X131658586Y-82894956D01*
X131657861Y-82893718D01*
X131602046Y-82784174D01*
X131602046Y-82784175D01*
X131575360Y-82731801D01*
X131464290Y-82578927D01*
X131330673Y-82445310D01*
X131177799Y-82334240D01*
X131009436Y-82248454D01*
X130829718Y-82190059D01*
X130829712Y-82190058D01*
X130643091Y-82160500D01*
X130643086Y-82160500D01*
X130643081Y-82160500D01*
X130454119Y-82160500D01*
X130454114Y-82160500D01*
X130454109Y-82160500D01*
X130267486Y-82190058D01*
X130267484Y-82190058D01*
X130267481Y-82190059D01*
X130087763Y-82248454D01*
X130003581Y-82291347D01*
X129919399Y-82334240D01*
X129832179Y-82397610D01*
X129832178Y-82397610D01*
X129778394Y-82436686D01*
X129771019Y-82440816D01*
X129628416Y-82583419D01*
X129624286Y-82590794D01*
X129585210Y-82644578D01*
X129585210Y-82644579D01*
X129521840Y-82731799D01*
X129436053Y-82900165D01*
X129377659Y-83079882D01*
X129373973Y-83103157D01*
X129363546Y-83136878D01*
X129357600Y-83149420D01*
X129311095Y-83201564D01*
X129243787Y-83220287D01*
X129234386Y-83220153D01*
X129188701Y-83210727D01*
X129184216Y-83208869D01*
X129184202Y-83208864D01*
X129184197Y-83208863D01*
X129184189Y-83208861D01*
X129184179Y-83208859D01*
X129184171Y-83208857D01*
X129029547Y-83178100D01*
X129029545Y-83178100D01*
X129029542Y-83178100D01*
X128871858Y-83178100D01*
X128871855Y-83178100D01*
X128871853Y-83178100D01*
X128717227Y-83208857D01*
X128717196Y-83208864D01*
X128571533Y-83269198D01*
X128571524Y-83269203D01*
X128571507Y-83269213D01*
X128440408Y-83356811D01*
X128440407Y-83356812D01*
X128440401Y-83356817D01*
X128328917Y-83468301D01*
X128328912Y-83468307D01*
X128328911Y-83468308D01*
X128241313Y-83599407D01*
X128241303Y-83599424D01*
X128241298Y-83599433D01*
X128180964Y-83745096D01*
X128180957Y-83745127D01*
X128150200Y-83899750D01*
X128150200Y-84057450D01*
X128177262Y-84193501D01*
X128178936Y-84204449D01*
X128183133Y-84243522D01*
X128172403Y-84308783D01*
X128166075Y-84322476D01*
X128156616Y-84339349D01*
X128069713Y-84469407D01*
X128069703Y-84469424D01*
X128069698Y-84469433D01*
X128009372Y-84615075D01*
X128009364Y-84615099D01*
X128009359Y-84615115D01*
X127981939Y-84752962D01*
X127970198Y-84786244D01*
X127954833Y-84815618D01*
X127932638Y-84845825D01*
X127174279Y-85604183D01*
X127174276Y-85604187D01*
X127166109Y-85618335D01*
X127166108Y-85618337D01*
X127150162Y-85645958D01*
X127148348Y-85649100D01*
X127095223Y-85741115D01*
X127054299Y-85893843D01*
X127054299Y-85893845D01*
X127054299Y-86051965D01*
X127054300Y-86061958D01*
X127054300Y-99369990D01*
X127054299Y-99370064D01*
X127054299Y-99371748D01*
X127054299Y-99537454D01*
X127054298Y-99537454D01*
X124452500Y-99537454D01*
X124452500Y-79831770D01*
X146337403Y-79831770D01*
X146337403Y-80006435D01*
X146343830Y-80047010D01*
X146364725Y-80178939D01*
X146418691Y-80345032D01*
X146418691Y-80345034D01*
X146472030Y-80449714D01*
X146497988Y-80500659D01*
X146503839Y-80508712D01*
X146503840Y-80508713D01*
X146943010Y-80069542D01*
X147004331Y-80036059D01*
X147074022Y-80041043D01*
X147129956Y-80082914D01*
X147138075Y-80095224D01*
X147161385Y-80135597D01*
X147162453Y-80137446D01*
X147228660Y-80203653D01*
X147228663Y-80203654D01*
X147228666Y-80203657D01*
X147270880Y-80228030D01*
X147319095Y-80278597D01*
X147332317Y-80347205D01*
X147306349Y-80412069D01*
X147296560Y-80423097D01*
X146857390Y-80862264D01*
X146857391Y-80862264D01*
X146857391Y-80862265D01*
X146857392Y-80862266D01*
X146865436Y-80868111D01*
X146865448Y-80868118D01*
X146940793Y-80906509D01*
X146964713Y-80929101D01*
X147021064Y-80947410D01*
X147021063Y-80947410D01*
X147187169Y-81001380D01*
X147359671Y-81028703D01*
X147534334Y-81028703D01*
X147534335Y-81028703D01*
X147706836Y-81001380D01*
X147872941Y-80947410D01*
X147904129Y-80931519D01*
X148028552Y-80868122D01*
X148029265Y-80867661D01*
X148030869Y-80866438D01*
X148036613Y-80862265D01*
X147597445Y-80423097D01*
X147563960Y-80361774D01*
X147568944Y-80292083D01*
X147610815Y-80236149D01*
X147623126Y-80228029D01*
X147665339Y-80203657D01*
X147665346Y-80203653D01*
X147731553Y-80137446D01*
X147755930Y-80095223D01*
X147806495Y-80047010D01*
X147875102Y-80033786D01*
X147939967Y-80059754D01*
X147950997Y-80069544D01*
X148390163Y-80508711D01*
X148390163Y-80508710D01*
X148390165Y-80508712D01*
X148394347Y-80502957D01*
X148395565Y-80501360D01*
X148396022Y-80500652D01*
X148475305Y-80345051D01*
X148475311Y-80345038D01*
X148510596Y-80236439D01*
X148529280Y-80178936D01*
X148556603Y-80006435D01*
X148556603Y-79831770D01*
X148529280Y-79659269D01*
X148521250Y-79634555D01*
X148475313Y-79493171D01*
X148475310Y-79493167D01*
X148475310Y-79493164D01*
X148396018Y-79337548D01*
X148396011Y-79337536D01*
X148390166Y-79329492D01*
X148390165Y-79329491D01*
X148390164Y-79329491D01*
X147950996Y-79768659D01*
X147889673Y-79802144D01*
X147819981Y-79797160D01*
X147764048Y-79755288D01*
X147755928Y-79742979D01*
X147731553Y-79700760D01*
X147665346Y-79634553D01*
X147663497Y-79633485D01*
X147623124Y-79610175D01*
X147574909Y-79559608D01*
X147561687Y-79491001D01*
X147587655Y-79426136D01*
X147597436Y-79415116D01*
X148036613Y-78975940D01*
X148036612Y-78975939D01*
X148028559Y-78970088D01*
X147872939Y-78890794D01*
X147872938Y-78890793D01*
X147872933Y-78890791D01*
X147706839Y-78836825D01*
X147577460Y-78816333D01*
X147534335Y-78809503D01*
X147534334Y-78809503D01*
X147359672Y-78809503D01*
X147359671Y-78809503D01*
X147302170Y-78818610D01*
X147187167Y-78836825D01*
X147021066Y-78890793D01*
X147021058Y-78890796D01*
X146865446Y-78970086D01*
X146865444Y-78970087D01*
X146857391Y-78975938D01*
X147296561Y-79415108D01*
X147330046Y-79476431D01*
X147325062Y-79546123D01*
X147283190Y-79602056D01*
X147270882Y-79610175D01*
X147228663Y-79634551D01*
X147228657Y-79634555D01*
X147162455Y-79700757D01*
X147162451Y-79700763D01*
X147138075Y-79742982D01*
X147087507Y-79791197D01*
X147018900Y-79804418D01*
X146954035Y-79778449D01*
X146943008Y-79768661D01*
X146503839Y-79329492D01*
X146503838Y-79329492D01*
X146497987Y-79337544D01*
X146497986Y-79337546D01*
X146418696Y-79493158D01*
X146418693Y-79493166D01*
X146364725Y-79659267D01*
X146351359Y-79743654D01*
X146337403Y-79831770D01*
X124452500Y-79831770D01*
X124452500Y-78186507D01*
X129348100Y-78186507D01*
X129348100Y-78375491D01*
X129362791Y-78468243D01*
X129377659Y-78562118D01*
X129436054Y-78741836D01*
X129436055Y-78741837D01*
X129436056Y-78741842D01*
X129484453Y-78836823D01*
X129484453Y-78836825D01*
X129484454Y-78836825D01*
X129521840Y-78910199D01*
X129632910Y-79063073D01*
X129766527Y-79196690D01*
X129919401Y-79307760D01*
X129995941Y-79346759D01*
X129995940Y-79346759D01*
X130037546Y-79367958D01*
X130087763Y-79393545D01*
X130088636Y-79393990D01*
X130092390Y-79395049D01*
X130128769Y-79406869D01*
X130184095Y-79424845D01*
X130184096Y-79424846D01*
X130204943Y-79431619D01*
X130267481Y-79451940D01*
X130454114Y-79481500D01*
X130454119Y-79481500D01*
X130643085Y-79481500D01*
X130643086Y-79481500D01*
X130829718Y-79451940D01*
X131009432Y-79393547D01*
X131177799Y-79307760D01*
X131330673Y-79196690D01*
X131464290Y-79063073D01*
X131575360Y-78910199D01*
X131661147Y-78741832D01*
X131719540Y-78562118D01*
X131749100Y-78375486D01*
X131749100Y-78186513D01*
X131749099Y-78186507D01*
X133216300Y-78186507D01*
X133216300Y-78375491D01*
X133230991Y-78468243D01*
X133245859Y-78562118D01*
X133304254Y-78741836D01*
X133304255Y-78741837D01*
X133304256Y-78741842D01*
X133352653Y-78836823D01*
X133352653Y-78836825D01*
X133352654Y-78836825D01*
X133390040Y-78910199D01*
X133501110Y-79063073D01*
X133634727Y-79196690D01*
X133787601Y-79307760D01*
X133864141Y-79346759D01*
X133864140Y-79346759D01*
X133905746Y-79367958D01*
X133955963Y-79393545D01*
X133956836Y-79393990D01*
X133960590Y-79395049D01*
X133996969Y-79406869D01*
X134052295Y-79424845D01*
X134052296Y-79424846D01*
X134073143Y-79431619D01*
X134135681Y-79451940D01*
X134322314Y-79481500D01*
X134322319Y-79481500D01*
X134511285Y-79481500D01*
X134511286Y-79481500D01*
X134697918Y-79451940D01*
X134877632Y-79393547D01*
X135045999Y-79307760D01*
X135198873Y-79196690D01*
X135332490Y-79063073D01*
X135443560Y-78910199D01*
X135529347Y-78741832D01*
X135587740Y-78562118D01*
X135617300Y-78375486D01*
X135617300Y-78186513D01*
X135587740Y-77999881D01*
X135529345Y-77820163D01*
X135443559Y-77651800D01*
X135332490Y-77498927D01*
X135198873Y-77365310D01*
X135045999Y-77254240D01*
X134877636Y-77168454D01*
X134697918Y-77110059D01*
X134697912Y-77110058D01*
X134511291Y-77080500D01*
X134511286Y-77080500D01*
X134511281Y-77080500D01*
X134322319Y-77080500D01*
X134322314Y-77080500D01*
X134322309Y-77080500D01*
X134135686Y-77110058D01*
X134135684Y-77110058D01*
X134135681Y-77110059D01*
X133955963Y-77168454D01*
X133945601Y-77173734D01*
X133787600Y-77254239D01*
X133757041Y-77276443D01*
X133646598Y-77356685D01*
X133639217Y-77360818D01*
X133496618Y-77503417D01*
X133492484Y-77510800D01*
X133480497Y-77527298D01*
X133413715Y-77619215D01*
X133390040Y-77651800D01*
X133304254Y-77820163D01*
X133245859Y-77999881D01*
X133245858Y-77999884D01*
X133245858Y-77999886D01*
X133216300Y-78186507D01*
X131749099Y-78186507D01*
X131719540Y-77999881D01*
X131661145Y-77820163D01*
X131575359Y-77651800D01*
X131464290Y-77498927D01*
X131330673Y-77365310D01*
X131177799Y-77254240D01*
X131009436Y-77168454D01*
X130829718Y-77110059D01*
X130829712Y-77110058D01*
X130643091Y-77080500D01*
X130643086Y-77080500D01*
X130643081Y-77080500D01*
X130454119Y-77080500D01*
X130454114Y-77080500D01*
X130454109Y-77080500D01*
X130267486Y-77110058D01*
X130267484Y-77110058D01*
X130267481Y-77110059D01*
X130087763Y-77168454D01*
X130077401Y-77173734D01*
X129919400Y-77254239D01*
X129888841Y-77276443D01*
X129778398Y-77356685D01*
X129771017Y-77360818D01*
X129628418Y-77503417D01*
X129624284Y-77510800D01*
X129612297Y-77527298D01*
X129545515Y-77619215D01*
X129521840Y-77651800D01*
X129436054Y-77820163D01*
X129377659Y-77999881D01*
X129377658Y-77999884D01*
X129377658Y-77999886D01*
X129348100Y-78186507D01*
X124452500Y-78186507D01*
X124452500Y-76239621D01*
X142744800Y-76239621D01*
X142744800Y-76414377D01*
X142770272Y-76575199D01*
X142772133Y-76586949D01*
X142826131Y-76753135D01*
X142905457Y-76908819D01*
X143008163Y-77050182D01*
X143131718Y-77173737D01*
X143273081Y-77276443D01*
X143346636Y-77313921D01*
X143422317Y-77352483D01*
X143423918Y-77353420D01*
X143427608Y-77355208D01*
X143429624Y-77356209D01*
X143433383Y-77357269D01*
X143474042Y-77370480D01*
X143594950Y-77409766D01*
X143767528Y-77437100D01*
X143767533Y-77437100D01*
X143942271Y-77437100D01*
X143942272Y-77437100D01*
X144114849Y-77409766D01*
X144281031Y-77355770D01*
X144436719Y-77276443D01*
X144578082Y-77173737D01*
X144701637Y-77050182D01*
X144804343Y-76908819D01*
X144883670Y-76753131D01*
X144937666Y-76586949D01*
X144939527Y-76575199D01*
X144965000Y-76414372D01*
X144965000Y-76239627D01*
X144964999Y-76239621D01*
X146336903Y-76239621D01*
X146336903Y-76414377D01*
X146362375Y-76575199D01*
X146364236Y-76586949D01*
X146418234Y-76753135D01*
X146497560Y-76908819D01*
X146600266Y-77050182D01*
X146723821Y-77173737D01*
X146865184Y-77276443D01*
X146938739Y-77313921D01*
X147014420Y-77352483D01*
X147016021Y-77353420D01*
X147019711Y-77355208D01*
X147021727Y-77356209D01*
X147025486Y-77357269D01*
X147066145Y-77370480D01*
X147187053Y-77409766D01*
X147359631Y-77437100D01*
X147359636Y-77437100D01*
X147534374Y-77437100D01*
X147534375Y-77437100D01*
X147706952Y-77409766D01*
X147873134Y-77355770D01*
X148028822Y-77276443D01*
X148170185Y-77173737D01*
X148293740Y-77050182D01*
X148396446Y-76908819D01*
X148475773Y-76753131D01*
X148529769Y-76586949D01*
X148531630Y-76575199D01*
X148557103Y-76414372D01*
X148557103Y-76239627D01*
X148529769Y-76067050D01*
X148516774Y-76027057D01*
X148475773Y-75900869D01*
X148450622Y-75851507D01*
X152215500Y-75851507D01*
X152215500Y-76040491D01*
X152238919Y-76188351D01*
X152245059Y-76227118D01*
X152303454Y-76406836D01*
X152389240Y-76575199D01*
X152500310Y-76728073D01*
X152633927Y-76861690D01*
X152698794Y-76908819D01*
X152786796Y-76972757D01*
X152786797Y-76972757D01*
X152786801Y-76972760D01*
X152866347Y-77013290D01*
X152948722Y-77055263D01*
X152950320Y-77056198D01*
X152954055Y-77058008D01*
X152956022Y-77058986D01*
X152959784Y-77060046D01*
X153022730Y-77080499D01*
X153022731Y-77080500D01*
X153060115Y-77092646D01*
X153134881Y-77116940D01*
X153321514Y-77146500D01*
X153321519Y-77146500D01*
X153510484Y-77146500D01*
X153510486Y-77146500D01*
X153627017Y-77128042D01*
X153652148Y-77124062D01*
X153652154Y-77124062D01*
X153687428Y-77123558D01*
X153709521Y-77126412D01*
X153763624Y-77147035D01*
X153767309Y-77149555D01*
X153784994Y-77164229D01*
X154671573Y-78050808D01*
X154692723Y-78079060D01*
X154705331Y-78102149D01*
X154720500Y-78161578D01*
X154720500Y-80407568D01*
X154715474Y-80442515D01*
X154712462Y-80452769D01*
X154674681Y-80511543D01*
X154611122Y-80540562D01*
X154541965Y-80530611D01*
X154495820Y-80494222D01*
X154493388Y-80491113D01*
X154480572Y-80471009D01*
X154457332Y-80425399D01*
X154457332Y-80425398D01*
X154442763Y-80396805D01*
X154417311Y-80361774D01*
X154331690Y-80243927D01*
X154198073Y-80110310D01*
X154045199Y-79999240D01*
X153979803Y-79965919D01*
X153876836Y-79913454D01*
X153697118Y-79855059D01*
X153692724Y-79854363D01*
X153510491Y-79825500D01*
X153510486Y-79825500D01*
X153510481Y-79825500D01*
X153321519Y-79825500D01*
X153321514Y-79825500D01*
X153321509Y-79825500D01*
X153134886Y-79855058D01*
X153134884Y-79855058D01*
X153134881Y-79855059D01*
X152955163Y-79913454D01*
X152870981Y-79956347D01*
X152786799Y-79999240D01*
X152739252Y-80033786D01*
X152708184Y-80056359D01*
X152659562Y-80091685D01*
X152645797Y-80101686D01*
X152638417Y-80105818D01*
X152495817Y-80248418D01*
X152491686Y-80255795D01*
X152389730Y-80396125D01*
X152389240Y-80396800D01*
X152389238Y-80396802D01*
X152389236Y-80396807D01*
X152375841Y-80423097D01*
X152303454Y-80565163D01*
X152245059Y-80744881D01*
X152245058Y-80744884D01*
X152245058Y-80744886D01*
X152215500Y-80931507D01*
X152215500Y-81120491D01*
X152245058Y-81307112D01*
X152245059Y-81307118D01*
X152303454Y-81486836D01*
X152389240Y-81655199D01*
X152500310Y-81808073D01*
X152633927Y-81941690D01*
X152633928Y-81941691D01*
X152633927Y-81941691D01*
X152654442Y-81956595D01*
X152655826Y-81957600D01*
X152661157Y-81962519D01*
X152663601Y-81966596D01*
X152675267Y-81977933D01*
X152688870Y-81995573D01*
X152712543Y-82048395D01*
X152713367Y-82052780D01*
X152715500Y-82075680D01*
X152715500Y-83634993D01*
X152715500Y-83634995D01*
X152715499Y-83634995D01*
X152742418Y-83770323D01*
X152742615Y-83770973D01*
X152743266Y-83775513D01*
X152743136Y-83776409D01*
X152744228Y-83784594D01*
X152746335Y-83815221D01*
X152745100Y-83843130D01*
X152723500Y-83979506D01*
X152723500Y-84168491D01*
X152750396Y-84338307D01*
X152753059Y-84355118D01*
X152811454Y-84534836D01*
X152861380Y-84632820D01*
X152897240Y-84703199D01*
X153008310Y-84856073D01*
X153141927Y-84989690D01*
X153294801Y-85100760D01*
X153340846Y-85124221D01*
X153340845Y-85124221D01*
X153385986Y-85147221D01*
X153463163Y-85186545D01*
X153463165Y-85186545D01*
X153463168Y-85186547D01*
X153463169Y-85186547D01*
X153464040Y-85186991D01*
X153467790Y-85188049D01*
X153504169Y-85199869D01*
X153559495Y-85217845D01*
X153559496Y-85217846D01*
X153574740Y-85222799D01*
X153642881Y-85244940D01*
X153829514Y-85274500D01*
X153829519Y-85274500D01*
X154018485Y-85274500D01*
X154018486Y-85274500D01*
X154205118Y-85244940D01*
X154273257Y-85222800D01*
X154384832Y-85186547D01*
X154524323Y-85115472D01*
X154557729Y-85104088D01*
X154571369Y-85101527D01*
X154640890Y-85108501D01*
X154695604Y-85151953D01*
X154695617Y-85151971D01*
X154697540Y-85154700D01*
X154718498Y-85205792D01*
X154718821Y-85207735D01*
X154720500Y-85228069D01*
X154720500Y-85911337D01*
X154715474Y-85946282D01*
X154711636Y-85959349D01*
X154673857Y-86018124D01*
X154610299Y-86047143D01*
X154548289Y-86040193D01*
X154540578Y-86037238D01*
X154516061Y-86024552D01*
X154476482Y-85998106D01*
X154476466Y-85998098D01*
X154330802Y-85937764D01*
X154330771Y-85937757D01*
X154176147Y-85907000D01*
X154176145Y-85907000D01*
X154176142Y-85907000D01*
X154018458Y-85907000D01*
X154018455Y-85907000D01*
X154018453Y-85907000D01*
X153863827Y-85937757D01*
X153863796Y-85937764D01*
X153718133Y-85998098D01*
X153718124Y-85998103D01*
X153718107Y-85998113D01*
X153587008Y-86085711D01*
X153587005Y-86085714D01*
X153475517Y-86197201D01*
X153475512Y-86197207D01*
X153475511Y-86197208D01*
X153387913Y-86328307D01*
X153387903Y-86328324D01*
X153387898Y-86328333D01*
X153327564Y-86473996D01*
X153327557Y-86474027D01*
X153296800Y-86628650D01*
X153296800Y-86628653D01*
X153296800Y-86786346D01*
X153296800Y-86786348D01*
X153296799Y-86786348D01*
X153327557Y-86940971D01*
X153327564Y-86941002D01*
X153387898Y-87086665D01*
X153387902Y-87086672D01*
X153387909Y-87086685D01*
X153465997Y-87203550D01*
X153481228Y-87235386D01*
X153491134Y-87267022D01*
X153496800Y-87304075D01*
X153496800Y-87930498D01*
X153491776Y-87965437D01*
X153486966Y-87981816D01*
X153451179Y-88038832D01*
X153441308Y-88047762D01*
X153414415Y-88066291D01*
X153294803Y-88127237D01*
X153246161Y-88162579D01*
X153153798Y-88229685D01*
X153146417Y-88233818D01*
X153003818Y-88376417D01*
X152999685Y-88383798D01*
X152961340Y-88436575D01*
X152961339Y-88436574D01*
X152901228Y-88519311D01*
X152897240Y-88524800D01*
X152897238Y-88524802D01*
X152897236Y-88524807D01*
X152891069Y-88536911D01*
X152811454Y-88693163D01*
X152753059Y-88872881D01*
X152753059Y-88872882D01*
X152753058Y-88872886D01*
X152723500Y-89059507D01*
X152723500Y-89248491D01*
X152753058Y-89435112D01*
X152753059Y-89435118D01*
X152811454Y-89614836D01*
X152858990Y-89708130D01*
X152884399Y-89757999D01*
X152884678Y-89758545D01*
X152897240Y-89783199D01*
X153008310Y-89936073D01*
X153141927Y-90069690D01*
X153228229Y-90132393D01*
X153294796Y-90180757D01*
X153294797Y-90180757D01*
X153294801Y-90180760D01*
X153374347Y-90221290D01*
X153456718Y-90263261D01*
X153458310Y-90264193D01*
X153462034Y-90265997D01*
X153464025Y-90266986D01*
X153467784Y-90268046D01*
X153523839Y-90286260D01*
X153523840Y-90286261D01*
X153528377Y-90287735D01*
X153642881Y-90324940D01*
X153829514Y-90354500D01*
X153829519Y-90354500D01*
X154018485Y-90354500D01*
X154018486Y-90354500D01*
X154205118Y-90324940D01*
X154247205Y-90311265D01*
X154384832Y-90266547D01*
X154524323Y-90195472D01*
X154557729Y-90184088D01*
X154571369Y-90181527D01*
X154640890Y-90188501D01*
X154695604Y-90231953D01*
X154695617Y-90231971D01*
X154697540Y-90234700D01*
X154718498Y-90285792D01*
X154718821Y-90287735D01*
X154720500Y-90308069D01*
X154720500Y-91518530D01*
X154720499Y-91518548D01*
X154720499Y-91582538D01*
X154720499Y-91642162D01*
X154714600Y-91662248D01*
X154729969Y-91719600D01*
X154729969Y-91719602D01*
X154729970Y-91719602D01*
X154760420Y-91833244D01*
X154761423Y-91836985D01*
X154765065Y-91843294D01*
X154770399Y-91852533D01*
X154774461Y-91859569D01*
X154774464Y-91859572D01*
X154800488Y-91904648D01*
X154840476Y-91973911D01*
X154840477Y-91973912D01*
X154840482Y-91973918D01*
X154840488Y-91973925D01*
X154961314Y-92094751D01*
X154961359Y-92094794D01*
X155297617Y-92431052D01*
X155318767Y-92459305D01*
X155334654Y-92488399D01*
X155347440Y-92523635D01*
X155375059Y-92662484D01*
X155375060Y-92662488D01*
X155375061Y-92662491D01*
X155375064Y-92662501D01*
X155375067Y-92662509D01*
X155375072Y-92662523D01*
X155435398Y-92808165D01*
X155435403Y-92808174D01*
X155435413Y-92808191D01*
X155523011Y-92939290D01*
X155523012Y-92939291D01*
X155523017Y-92939297D01*
X155634501Y-93050781D01*
X155634507Y-93050786D01*
X155634508Y-93050787D01*
X155634511Y-93050789D01*
X155765614Y-93138390D01*
X155765627Y-93138397D01*
X155890794Y-93190242D01*
X155911303Y-93198737D01*
X155911310Y-93198738D01*
X155911310Y-93198739D01*
X155995079Y-93215401D01*
X156065953Y-93229499D01*
X156065956Y-93229500D01*
X156065958Y-93229500D01*
X156223644Y-93229500D01*
X156223645Y-93229499D01*
X156378297Y-93198737D01*
X156523979Y-93138394D01*
X156655089Y-93050789D01*
X156766589Y-92939289D01*
X156854194Y-92808179D01*
X156914537Y-92662497D01*
X156945300Y-92507842D01*
X156945300Y-92350158D01*
X156945300Y-92350155D01*
X156945299Y-92350153D01*
X156933918Y-92292936D01*
X156914537Y-92195503D01*
X156888890Y-92133585D01*
X156854197Y-92049827D01*
X156854190Y-92049814D01*
X156766589Y-91918711D01*
X156766586Y-91918707D01*
X156766581Y-91918701D01*
X156655097Y-91807217D01*
X156655091Y-91807212D01*
X156655090Y-91807211D01*
X156523991Y-91719613D01*
X156523990Y-91719612D01*
X156523985Y-91719609D01*
X156523972Y-91719602D01*
X156523965Y-91719598D01*
X156378323Y-91659272D01*
X156378309Y-91659267D01*
X156378301Y-91659264D01*
X156378291Y-91659261D01*
X156378286Y-91659260D01*
X156378283Y-91659259D01*
X156240436Y-91631839D01*
X156207154Y-91620098D01*
X156177780Y-91604733D01*
X156147573Y-91582538D01*
X155970426Y-91405391D01*
X155949274Y-91377135D01*
X155936667Y-91354046D01*
X155921500Y-91294621D01*
X155921500Y-84825848D01*
X157033199Y-84825848D01*
X157063957Y-84980471D01*
X157063964Y-84980502D01*
X157124298Y-85126165D01*
X157124303Y-85126174D01*
X157124313Y-85126191D01*
X157211906Y-85257282D01*
X157211912Y-85257291D01*
X157211917Y-85257297D01*
X157323401Y-85368781D01*
X157323407Y-85368786D01*
X157323411Y-85368789D01*
X157454517Y-85456392D01*
X157454518Y-85456392D01*
X157455539Y-85457074D01*
X157460127Y-85458716D01*
X157482280Y-85467892D01*
X157503705Y-85479344D01*
X157523635Y-85492660D01*
X157542421Y-85508078D01*
X164332853Y-92298511D01*
X164332855Y-92298513D01*
X164332858Y-92298515D01*
X164447579Y-92375169D01*
X164447582Y-92375170D01*
X164447590Y-92375176D01*
X164546190Y-92416017D01*
X164575071Y-92427980D01*
X164575072Y-92427980D01*
X164575077Y-92427982D01*
X164596508Y-92432244D01*
X164596511Y-92432244D01*
X164599878Y-92432913D01*
X164601607Y-92433257D01*
X164602065Y-92433349D01*
X164602064Y-92433349D01*
X164710404Y-92454900D01*
X164710407Y-92454900D01*
X164790914Y-92454900D01*
X164816619Y-92457593D01*
X164822905Y-92458925D01*
X164823819Y-92459303D01*
X164838019Y-92462127D01*
X164838672Y-92462266D01*
X164839305Y-92462607D01*
X164860411Y-92469009D01*
X164993498Y-92524135D01*
X164993503Y-92524137D01*
X164993506Y-92524137D01*
X164993507Y-92524138D01*
X165041459Y-92533676D01*
X165148153Y-92554899D01*
X165148156Y-92554900D01*
X165148158Y-92554900D01*
X165305844Y-92554900D01*
X165305845Y-92554899D01*
X165460497Y-92524137D01*
X165606179Y-92463794D01*
X165737289Y-92376189D01*
X165848789Y-92264689D01*
X165936394Y-92133579D01*
X165996737Y-91987897D01*
X166027500Y-91833242D01*
X166027500Y-91675558D01*
X166027500Y-91675555D01*
X166027500Y-91675372D01*
X166027066Y-91673376D01*
X166024258Y-91659260D01*
X166024258Y-91659259D01*
X165996739Y-91520910D01*
X165996736Y-91520901D01*
X165995761Y-91518548D01*
X165962254Y-91437653D01*
X165936397Y-91375227D01*
X165936390Y-91375214D01*
X165848789Y-91244111D01*
X165848786Y-91244107D01*
X165848781Y-91244101D01*
X165737297Y-91132617D01*
X165737291Y-91132612D01*
X165737290Y-91132611D01*
X165606191Y-91045013D01*
X165606190Y-91045012D01*
X165606185Y-91045009D01*
X165606172Y-91045002D01*
X165606165Y-91044998D01*
X165460502Y-90984664D01*
X165460471Y-90984657D01*
X165305847Y-90953900D01*
X165305845Y-90953900D01*
X165305842Y-90953900D01*
X165148158Y-90953900D01*
X165136252Y-90956268D01*
X165081675Y-90967123D01*
X165046427Y-90969010D01*
X165043252Y-90968726D01*
X165025531Y-90967140D01*
X164968623Y-90947347D01*
X164963003Y-90943664D01*
X164943289Y-90927632D01*
X163403645Y-89387988D01*
X163382496Y-89359738D01*
X163377074Y-89349808D01*
X163362221Y-89281538D01*
X163386635Y-89216073D01*
X163442565Y-89174201D01*
X163446444Y-89172754D01*
X163449780Y-89171511D01*
X163493094Y-89163700D01*
X163522264Y-89163700D01*
X163530114Y-89161318D01*
X163672797Y-89132937D01*
X163785466Y-89086267D01*
X163811934Y-89075304D01*
X163814725Y-89074331D01*
X163816168Y-89073664D01*
X163820828Y-89071621D01*
X163830087Y-89067785D01*
X163838971Y-89058901D01*
X163949589Y-88984989D01*
X164061089Y-88873489D01*
X164061090Y-88873488D01*
X164061091Y-88873487D01*
X164148690Y-88742385D01*
X164148690Y-88742384D01*
X164148694Y-88742379D01*
X164209037Y-88596697D01*
X164239800Y-88442042D01*
X164239800Y-88284358D01*
X164239800Y-88284355D01*
X164239800Y-88284171D01*
X164239364Y-88282166D01*
X164229445Y-88232299D01*
X164209039Y-88129710D01*
X164209036Y-88129701D01*
X164208015Y-88127237D01*
X164179674Y-88058813D01*
X164148697Y-87984027D01*
X164148690Y-87984014D01*
X164068046Y-87863322D01*
X164065774Y-87859305D01*
X164064749Y-87854913D01*
X164055371Y-87835311D01*
X164045465Y-87803674D01*
X164039800Y-87766622D01*
X164039800Y-81558626D01*
X164044822Y-81523693D01*
X164052234Y-81498448D01*
X164083528Y-81445706D01*
X164527855Y-81001380D01*
X164978074Y-80551159D01*
X165006325Y-80530011D01*
X165021311Y-80521828D01*
X165086917Y-80506818D01*
X165100222Y-80507484D01*
X165126192Y-80512267D01*
X165126296Y-80511836D01*
X165131032Y-80512972D01*
X165131033Y-80512972D01*
X165131042Y-80512975D01*
X165201921Y-80524201D01*
X165333236Y-80545000D01*
X165333241Y-80545000D01*
X165537963Y-80545000D01*
X165537964Y-80545000D01*
X165635985Y-80529474D01*
X165740158Y-80512975D01*
X165934857Y-80449714D01*
X166117263Y-80356773D01*
X166282884Y-80236442D01*
X166427642Y-80091684D01*
X166547973Y-79926063D01*
X166567021Y-79888678D01*
X166587355Y-79859833D01*
X166591865Y-79855058D01*
X166596247Y-79850417D01*
X166656588Y-79815196D01*
X166726394Y-79818188D01*
X166780114Y-79854363D01*
X166786184Y-79861369D01*
X166802950Y-79886270D01*
X166823223Y-79926057D01*
X166823224Y-79926059D01*
X166823227Y-79926063D01*
X166943558Y-80091684D01*
X166943560Y-80091686D01*
X167088319Y-80236445D01*
X167114953Y-80255795D01*
X167171263Y-80296706D01*
X167196572Y-80321302D01*
X167210174Y-80338941D01*
X167233840Y-80391743D01*
X167234664Y-80396131D01*
X167236800Y-80419041D01*
X167236800Y-88449604D01*
X167231776Y-88484541D01*
X167222436Y-88516348D01*
X167206562Y-88550302D01*
X167127913Y-88668007D01*
X167127903Y-88668024D01*
X167127898Y-88668033D01*
X167067564Y-88813696D01*
X167067557Y-88813727D01*
X167036800Y-88968350D01*
X167036800Y-88968353D01*
X167036800Y-89126046D01*
X167036800Y-89126048D01*
X167036799Y-89126048D01*
X167067557Y-89280671D01*
X167067564Y-89280702D01*
X167127898Y-89426365D01*
X167127903Y-89426374D01*
X167127913Y-89426391D01*
X167215511Y-89557490D01*
X167215512Y-89557491D01*
X167215517Y-89557497D01*
X167327001Y-89668981D01*
X167327007Y-89668986D01*
X167327011Y-89668989D01*
X167458114Y-89756590D01*
X167458127Y-89756597D01*
X167603798Y-89816935D01*
X167603803Y-89816937D01*
X167750510Y-89846119D01*
X167750943Y-89846205D01*
X167751037Y-89846254D01*
X167753415Y-89846882D01*
X167758455Y-89847700D01*
X167916144Y-89847700D01*
X167920264Y-89847700D01*
X167928114Y-89845318D01*
X168070797Y-89816937D01*
X168216479Y-89756594D01*
X168347589Y-89668989D01*
X168459089Y-89557489D01*
X168546694Y-89426379D01*
X168607037Y-89280697D01*
X168637800Y-89126042D01*
X168637800Y-88968358D01*
X168637800Y-88968355D01*
X168637800Y-88968171D01*
X168637364Y-88966166D01*
X168618929Y-88873488D01*
X168607037Y-88813703D01*
X168607035Y-88813698D01*
X168546697Y-88668027D01*
X168546690Y-88668014D01*
X168546679Y-88667997D01*
X168468604Y-88551149D01*
X168453371Y-88519311D01*
X168443465Y-88487674D01*
X168437800Y-88450622D01*
X168437800Y-80542030D01*
X168442823Y-80507094D01*
X168447633Y-80490713D01*
X168483415Y-80433701D01*
X168493291Y-80424765D01*
X168520183Y-80406237D01*
X168617263Y-80356773D01*
X168782884Y-80236442D01*
X168927642Y-80091684D01*
X169047973Y-79926063D01*
X169140914Y-79743657D01*
X169204175Y-79548958D01*
X169228790Y-79393545D01*
X169236200Y-79346764D01*
X169236200Y-79142035D01*
X169205833Y-78950311D01*
X169204175Y-78939842D01*
X169142157Y-78748970D01*
X169141902Y-78748145D01*
X169141898Y-78747928D01*
X169141358Y-78746012D01*
X169047973Y-78562738D01*
X169047972Y-78562736D01*
X169047523Y-78562118D01*
X168927642Y-78397116D01*
X168782884Y-78252358D01*
X168617263Y-78132027D01*
X168553887Y-78099735D01*
X168553887Y-78099734D01*
X168553885Y-78099734D01*
X168434857Y-78039085D01*
X168434853Y-78039083D01*
X168434830Y-78039075D01*
X168240161Y-77975825D01*
X168240162Y-77975825D01*
X168088512Y-77951806D01*
X168037964Y-77943800D01*
X168037963Y-77943800D01*
X167833237Y-77943800D01*
X167833236Y-77943800D01*
X167792796Y-77950205D01*
X167631036Y-77975825D01*
X167436368Y-78039075D01*
X167436349Y-78039082D01*
X167436348Y-78039082D01*
X167253943Y-78132023D01*
X167253930Y-78132031D01*
X167178934Y-78186518D01*
X167178935Y-78186519D01*
X167100187Y-78243733D01*
X167092806Y-78247866D01*
X166939066Y-78401606D01*
X166934933Y-78408987D01*
X166883392Y-78479926D01*
X166883391Y-78479925D01*
X166823225Y-78562737D01*
X166804177Y-78600121D01*
X166783843Y-78628966D01*
X166774953Y-78638379D01*
X166714611Y-78673602D01*
X166644806Y-78670610D01*
X166591091Y-78634442D01*
X166585021Y-78627437D01*
X166568249Y-78602529D01*
X166547978Y-78562746D01*
X166547972Y-78562737D01*
X166547969Y-78562732D01*
X166547530Y-78562127D01*
X166547530Y-78562128D01*
X166547523Y-78562118D01*
X166427642Y-78397116D01*
X166282884Y-78252358D01*
X166117263Y-78132027D01*
X166053887Y-78099735D01*
X166053887Y-78099734D01*
X166053885Y-78099734D01*
X165934857Y-78039085D01*
X165934853Y-78039083D01*
X165934830Y-78039075D01*
X165740161Y-77975825D01*
X165740162Y-77975825D01*
X165588512Y-77951806D01*
X165537964Y-77943800D01*
X165537963Y-77943800D01*
X165333237Y-77943800D01*
X165333236Y-77943800D01*
X165292796Y-77950205D01*
X165131036Y-77975825D01*
X164936368Y-78039075D01*
X164936349Y-78039082D01*
X164936348Y-78039082D01*
X164753943Y-78132023D01*
X164753930Y-78132031D01*
X164678934Y-78186518D01*
X164678935Y-78186519D01*
X164600187Y-78243733D01*
X164592806Y-78247866D01*
X164439066Y-78401606D01*
X164434933Y-78408987D01*
X164383392Y-78479926D01*
X164383391Y-78479925D01*
X164323225Y-78562737D01*
X164304177Y-78600121D01*
X164283843Y-78628966D01*
X164274953Y-78638379D01*
X164214611Y-78673602D01*
X164144806Y-78670610D01*
X164091091Y-78634442D01*
X164085021Y-78627437D01*
X164068249Y-78602529D01*
X164047978Y-78562746D01*
X164047972Y-78562737D01*
X164047969Y-78562732D01*
X164047530Y-78562127D01*
X164047530Y-78562128D01*
X164047523Y-78562118D01*
X163927642Y-78397116D01*
X163782884Y-78252358D01*
X163617263Y-78132027D01*
X163553887Y-78099735D01*
X163553887Y-78099734D01*
X163553885Y-78099734D01*
X163434857Y-78039085D01*
X163434853Y-78039083D01*
X163434830Y-78039075D01*
X163240161Y-77975825D01*
X163240162Y-77975825D01*
X163088512Y-77951806D01*
X163037964Y-77943800D01*
X163037963Y-77943800D01*
X162833237Y-77943800D01*
X162833236Y-77943800D01*
X162792796Y-77950205D01*
X162631036Y-77975825D01*
X162436368Y-78039075D01*
X162436349Y-78039082D01*
X162436348Y-78039082D01*
X162253943Y-78132023D01*
X162253930Y-78132031D01*
X162178934Y-78186518D01*
X162178935Y-78186519D01*
X162100187Y-78243733D01*
X162092806Y-78247866D01*
X161939066Y-78401606D01*
X161934933Y-78408987D01*
X161883392Y-78479926D01*
X161883391Y-78479925D01*
X161823225Y-78562737D01*
X161804177Y-78600121D01*
X161783843Y-78628966D01*
X161774953Y-78638379D01*
X161714611Y-78673602D01*
X161644806Y-78670610D01*
X161591091Y-78634442D01*
X161585021Y-78627437D01*
X161568249Y-78602529D01*
X161547978Y-78562746D01*
X161547972Y-78562737D01*
X161547969Y-78562732D01*
X161547530Y-78562127D01*
X161547530Y-78562128D01*
X161547523Y-78562118D01*
X161427642Y-78397116D01*
X161282884Y-78252358D01*
X161117263Y-78132027D01*
X161053887Y-78099735D01*
X161053887Y-78099734D01*
X161053885Y-78099734D01*
X160934857Y-78039085D01*
X160934853Y-78039083D01*
X160934830Y-78039075D01*
X160740161Y-77975825D01*
X160740162Y-77975825D01*
X160588512Y-77951806D01*
X160537964Y-77943800D01*
X160537963Y-77943800D01*
X160333237Y-77943800D01*
X160333236Y-77943800D01*
X160292796Y-77950205D01*
X160131036Y-77975825D01*
X159936368Y-78039075D01*
X159936349Y-78039082D01*
X159936348Y-78039082D01*
X159753943Y-78132023D01*
X159753930Y-78132031D01*
X159678934Y-78186518D01*
X159678935Y-78186519D01*
X159600187Y-78243733D01*
X159592806Y-78247866D01*
X159439064Y-78401608D01*
X159434934Y-78408983D01*
X159391880Y-78468242D01*
X159323229Y-78562732D01*
X159323227Y-78562736D01*
X159231967Y-78741842D01*
X159230282Y-78745148D01*
X159230282Y-78745149D01*
X159230275Y-78745168D01*
X159167025Y-78939836D01*
X159135000Y-79142035D01*
X159135000Y-79346759D01*
X159134999Y-79346761D01*
X159167025Y-79548962D01*
X159230275Y-79743630D01*
X159230283Y-79743653D01*
X159230285Y-79743657D01*
X159296084Y-79872792D01*
X159296084Y-79872794D01*
X159296085Y-79872794D01*
X159323227Y-79926063D01*
X159443558Y-80091684D01*
X159588316Y-80236442D01*
X159753937Y-80356773D01*
X159799731Y-80380106D01*
X159828788Y-80394912D01*
X159828791Y-80394913D01*
X159832494Y-80396800D01*
X159936342Y-80449714D01*
X159936345Y-80449715D01*
X160016043Y-80475610D01*
X160131042Y-80512975D01*
X160224689Y-80527807D01*
X160333236Y-80545000D01*
X160333241Y-80545000D01*
X160537963Y-80545000D01*
X160537964Y-80545000D01*
X160635985Y-80529474D01*
X160740158Y-80512975D01*
X160934857Y-80449714D01*
X161117263Y-80356773D01*
X161282884Y-80236442D01*
X161427642Y-80091684D01*
X161547973Y-79926063D01*
X161567021Y-79888678D01*
X161587355Y-79859833D01*
X161591865Y-79855058D01*
X161596247Y-79850417D01*
X161656588Y-79815196D01*
X161726394Y-79818188D01*
X161780114Y-79854363D01*
X161786184Y-79861369D01*
X161802950Y-79886270D01*
X161823223Y-79926057D01*
X161823224Y-79926059D01*
X161823227Y-79926063D01*
X161943558Y-80091684D01*
X162088316Y-80236442D01*
X162253937Y-80356773D01*
X162299731Y-80380106D01*
X162328788Y-80394912D01*
X162328791Y-80394913D01*
X162332494Y-80396800D01*
X162436342Y-80449714D01*
X162436345Y-80449715D01*
X162516043Y-80475610D01*
X162631042Y-80512975D01*
X162724689Y-80527807D01*
X162833236Y-80545000D01*
X162968572Y-80545000D01*
X163003499Y-80550021D01*
X163014352Y-80553207D01*
X163073133Y-80590977D01*
X163102162Y-80654531D01*
X163092223Y-80723690D01*
X163092219Y-80723699D01*
X163089034Y-80730673D01*
X163063922Y-80766841D01*
X163013774Y-80816988D01*
X162958781Y-80871982D01*
X162958777Y-80871986D01*
X162934618Y-80913832D01*
X162925804Y-80929101D01*
X162924408Y-80931519D01*
X162915233Y-80947411D01*
X162884075Y-81001378D01*
X162879723Y-81008915D01*
X162838799Y-81161643D01*
X162838799Y-81161645D01*
X162838799Y-81332100D01*
X162838800Y-81332151D01*
X162838800Y-87765604D01*
X162833776Y-87800541D01*
X162824436Y-87832348D01*
X162808562Y-87866302D01*
X162729913Y-87984007D01*
X162729903Y-87984024D01*
X162729898Y-87984033D01*
X162669564Y-88129696D01*
X162669557Y-88129727D01*
X162638800Y-88284350D01*
X162638800Y-88305951D01*
X162633776Y-88340889D01*
X162630589Y-88351742D01*
X162592814Y-88410519D01*
X162529257Y-88439542D01*
X162460107Y-88429601D01*
X162453129Y-88426414D01*
X162416957Y-88401300D01*
X158661084Y-84645427D01*
X158639934Y-84617175D01*
X158638805Y-84615108D01*
X158624046Y-84588079D01*
X158611263Y-84552849D01*
X158603437Y-84513503D01*
X158551353Y-84387759D01*
X158543536Y-84368886D01*
X158543099Y-84367831D01*
X158543095Y-84367824D01*
X158543090Y-84367814D01*
X158455489Y-84236711D01*
X158455486Y-84236707D01*
X158455481Y-84236701D01*
X158343997Y-84125217D01*
X158343991Y-84125212D01*
X158343990Y-84125211D01*
X158212891Y-84037613D01*
X158212890Y-84037612D01*
X158212885Y-84037609D01*
X158212872Y-84037602D01*
X158212865Y-84037598D01*
X158067202Y-83977264D01*
X158067171Y-83977257D01*
X157912547Y-83946500D01*
X157912545Y-83946500D01*
X157912542Y-83946500D01*
X157754858Y-83946500D01*
X157754855Y-83946500D01*
X157754853Y-83946500D01*
X157600227Y-83977257D01*
X157600196Y-83977264D01*
X157454533Y-84037598D01*
X157454524Y-84037603D01*
X157454507Y-84037613D01*
X157323408Y-84125211D01*
X157323407Y-84125212D01*
X157323401Y-84125217D01*
X157211917Y-84236701D01*
X157211912Y-84236707D01*
X157211911Y-84236708D01*
X157124313Y-84367807D01*
X157124303Y-84367824D01*
X157124298Y-84367833D01*
X157063964Y-84513496D01*
X157063957Y-84513527D01*
X157033200Y-84668150D01*
X157033200Y-84668153D01*
X157033200Y-84825846D01*
X157033200Y-84825848D01*
X157033199Y-84825848D01*
X155921500Y-84825848D01*
X155921500Y-77942451D01*
X155921501Y-77942400D01*
X155921501Y-77771945D01*
X155921501Y-77771943D01*
X155880577Y-77619215D01*
X155827508Y-77527297D01*
X155801520Y-77482284D01*
X155689716Y-77370480D01*
X155689713Y-77370478D01*
X154638673Y-76319438D01*
X154617523Y-76291186D01*
X154606847Y-76271634D01*
X154591730Y-76215745D01*
X154591602Y-76211266D01*
X154593078Y-76188359D01*
X154616500Y-76040486D01*
X154616500Y-75851513D01*
X154586940Y-75664881D01*
X154528545Y-75485163D01*
X154442759Y-75316800D01*
X154429267Y-75298230D01*
X154429267Y-75298229D01*
X154429266Y-75298229D01*
X154331692Y-75163930D01*
X154331687Y-75163924D01*
X154198075Y-75030312D01*
X154198073Y-75030310D01*
X154045199Y-74919240D01*
X153876836Y-74833454D01*
X153697118Y-74775059D01*
X153697112Y-74775058D01*
X153510491Y-74745500D01*
X153510486Y-74745500D01*
X153510481Y-74745500D01*
X153321519Y-74745500D01*
X153321514Y-74745500D01*
X153321509Y-74745500D01*
X153134886Y-74775058D01*
X153134884Y-74775058D01*
X153134881Y-74775059D01*
X152955163Y-74833454D01*
X152870981Y-74876347D01*
X152786799Y-74919240D01*
X152699579Y-74982610D01*
X152699578Y-74982610D01*
X152645794Y-75021686D01*
X152638419Y-75025816D01*
X152495817Y-75168418D01*
X152491688Y-75175792D01*
X152463476Y-75214623D01*
X152461823Y-75216900D01*
X152441965Y-75244232D01*
X152389240Y-75316799D01*
X152358282Y-75377557D01*
X152303454Y-75485163D01*
X152303454Y-75485164D01*
X152245059Y-75664882D01*
X152215500Y-75851507D01*
X148450622Y-75851507D01*
X148396446Y-75745181D01*
X148293740Y-75603818D01*
X148170185Y-75480263D01*
X148028822Y-75377557D01*
X147873138Y-75298231D01*
X147706952Y-75244233D01*
X147706946Y-75244232D01*
X147534380Y-75216900D01*
X147534375Y-75216900D01*
X147534370Y-75216900D01*
X147359636Y-75216900D01*
X147359631Y-75216900D01*
X147359626Y-75216900D01*
X147187058Y-75244232D01*
X147187056Y-75244232D01*
X147187053Y-75244233D01*
X147020867Y-75298231D01*
X146984426Y-75316799D01*
X146865182Y-75377557D01*
X146784528Y-75436156D01*
X146723818Y-75480265D01*
X146723816Y-75480267D01*
X146723815Y-75480267D01*
X146600270Y-75603812D01*
X146600270Y-75603813D01*
X146600268Y-75603815D01*
X146600266Y-75603818D01*
X146497560Y-75745179D01*
X146497559Y-75745181D01*
X146418234Y-75900864D01*
X146364236Y-76067050D01*
X146364235Y-76067053D01*
X146364235Y-76067055D01*
X146336903Y-76239621D01*
X144964999Y-76239621D01*
X144937666Y-76067050D01*
X144883668Y-75900864D01*
X144804342Y-75745180D01*
X144746002Y-75664882D01*
X144746001Y-75664880D01*
X144746000Y-75664878D01*
X144701640Y-75603822D01*
X144701635Y-75603816D01*
X144578084Y-75480265D01*
X144578082Y-75480263D01*
X144436719Y-75377557D01*
X144281035Y-75298231D01*
X144114849Y-75244233D01*
X144114843Y-75244232D01*
X143942277Y-75216900D01*
X143942272Y-75216900D01*
X143942267Y-75216900D01*
X143767533Y-75216900D01*
X143767528Y-75216900D01*
X143767523Y-75216900D01*
X143594955Y-75244232D01*
X143594953Y-75244232D01*
X143594950Y-75244233D01*
X143428764Y-75298231D01*
X143392323Y-75316799D01*
X143273079Y-75377557D01*
X143192425Y-75436156D01*
X143131715Y-75480265D01*
X143131713Y-75480267D01*
X143131712Y-75480267D01*
X143008167Y-75603812D01*
X143008167Y-75603813D01*
X143008165Y-75603815D01*
X143008163Y-75603818D01*
X142905457Y-75745179D01*
X142905456Y-75745181D01*
X142826131Y-75900864D01*
X142772133Y-76067050D01*
X142772132Y-76067053D01*
X142772132Y-76067055D01*
X142744800Y-76239621D01*
X124452500Y-76239621D01*
X124452500Y-68223642D01*
X125699500Y-68223642D01*
X125699500Y-68428356D01*
X125729238Y-68616114D01*
X125731522Y-68630534D01*
X125771765Y-68754389D01*
X125794782Y-68825225D01*
X125858690Y-68950652D01*
X125885215Y-69002710D01*
X125885216Y-69002710D01*
X125885217Y-69002713D01*
X125887714Y-69007612D01*
X125887716Y-69007615D01*
X126008028Y-69173213D01*
X126152786Y-69317971D01*
X126307749Y-69430556D01*
X126318390Y-69438287D01*
X126434607Y-69497503D01*
X126495154Y-69528353D01*
X126496043Y-69528824D01*
X126496249Y-69529025D01*
X126499629Y-69530662D01*
X126501636Y-69531659D01*
X126505401Y-69532721D01*
X126544546Y-69545440D01*
X126695465Y-69594477D01*
X126796557Y-69610488D01*
X126897648Y-69626500D01*
X126897649Y-69626500D01*
X127102351Y-69626500D01*
X127102352Y-69626500D01*
X127304534Y-69594477D01*
X127499219Y-69531220D01*
X127681610Y-69438287D01*
X127774590Y-69370732D01*
X127847213Y-69317971D01*
X127847213Y-69317969D01*
X127847272Y-69317927D01*
X127848031Y-69317153D01*
X127991966Y-69173219D01*
X127991968Y-69173215D01*
X127991971Y-69173213D01*
X128112284Y-69007614D01*
X128112285Y-69007613D01*
X128112287Y-69007610D01*
X128135507Y-68962038D01*
X134543500Y-68962038D01*
X134543500Y-69213962D01*
X134543784Y-69215756D01*
X134543784Y-69215762D01*
X134567248Y-69363903D01*
X134579029Y-69438284D01*
X134582910Y-69462785D01*
X134660760Y-69702383D01*
X134775132Y-69926848D01*
X134775134Y-69926851D01*
X134864886Y-70050385D01*
X134923201Y-70130649D01*
X134923205Y-70130654D01*
X134923210Y-70130660D01*
X135101338Y-70308788D01*
X135101342Y-70308791D01*
X135101345Y-70308794D01*
X135101350Y-70308798D01*
X135279117Y-70437952D01*
X135305155Y-70456870D01*
X135448184Y-70529747D01*
X135448183Y-70529747D01*
X135484752Y-70548379D01*
X135526775Y-70569791D01*
X135530488Y-70571684D01*
X135534243Y-70572743D01*
X135688340Y-70622812D01*
X135769215Y-70649090D01*
X136018038Y-70688500D01*
X136018039Y-70688500D01*
X136269961Y-70688500D01*
X136269962Y-70688500D01*
X136518785Y-70649090D01*
X136758379Y-70571241D01*
X136982845Y-70456870D01*
X137186656Y-70308793D01*
X137364793Y-70130656D01*
X137512870Y-69926845D01*
X137627241Y-69702379D01*
X137705090Y-69462785D01*
X137744500Y-69213962D01*
X137744500Y-68962038D01*
X137705090Y-68713215D01*
X137705089Y-68713211D01*
X137705089Y-68713210D01*
X137629852Y-68481657D01*
X137627241Y-68473621D01*
X137627239Y-68473618D01*
X137627239Y-68473616D01*
X137625000Y-68469222D01*
X137624690Y-68468427D01*
X137623956Y-68467173D01*
X137512869Y-68249154D01*
X137512865Y-68249146D01*
X137468426Y-68187982D01*
X142163500Y-68187982D01*
X142163500Y-69988017D01*
X142163518Y-69988193D01*
X142163518Y-69988196D01*
X142173999Y-70090789D01*
X142174001Y-70090800D01*
X142195128Y-70154558D01*
X142195129Y-70154558D01*
X142229186Y-70257335D01*
X142321288Y-70406656D01*
X142445344Y-70530712D01*
X142594665Y-70622814D01*
X142761202Y-70677999D01*
X142863990Y-70688500D01*
X142863995Y-70688500D01*
X144664005Y-70688500D01*
X144664010Y-70688500D01*
X144766798Y-70677999D01*
X144933335Y-70622814D01*
X145082656Y-70530712D01*
X145206712Y-70406656D01*
X145298814Y-70257335D01*
X145353999Y-70090798D01*
X145364500Y-69988010D01*
X145364500Y-69747635D01*
X162271800Y-69747635D01*
X162271800Y-69952363D01*
X162303825Y-70154560D01*
X162367075Y-70349230D01*
X162367082Y-70349249D01*
X162367082Y-70349250D01*
X162367083Y-70349253D01*
X162367084Y-70349254D01*
X162367085Y-70349257D01*
X162412278Y-70437952D01*
X162459530Y-70530689D01*
X162460024Y-70531659D01*
X162460027Y-70531663D01*
X162580358Y-70697284D01*
X162725116Y-70842042D01*
X162849331Y-70932290D01*
X162849330Y-70932290D01*
X162890737Y-70962373D01*
X162890738Y-70962374D01*
X162924218Y-70979432D01*
X162928681Y-70981706D01*
X162928694Y-70981718D01*
X162957516Y-71002035D01*
X162966931Y-71010927D01*
X162975924Y-71026335D01*
X162979471Y-71029685D01*
X162980642Y-71034417D01*
X163002153Y-71071269D01*
X162999161Y-71141074D01*
X162963001Y-71194781D01*
X162955995Y-71200853D01*
X162931081Y-71217630D01*
X162917713Y-71224442D01*
X162891005Y-71238050D01*
X162891004Y-71238051D01*
X162846406Y-71270452D01*
X162846406Y-71270453D01*
X163282503Y-71706549D01*
X163315988Y-71767872D01*
X163311004Y-71837563D01*
X163269133Y-71893497D01*
X163256824Y-71901616D01*
X163237085Y-71913012D01*
X163135412Y-72014685D01*
X163124015Y-72034425D01*
X163073446Y-72082638D01*
X163004839Y-72095859D01*
X162939975Y-72069889D01*
X162928949Y-72060102D01*
X162492853Y-71624006D01*
X162492852Y-71624006D01*
X162460453Y-71668601D01*
X162460452Y-71668603D01*
X162367549Y-71850932D01*
X162304313Y-72045552D01*
X162302787Y-72055191D01*
X162302786Y-72055190D01*
X162302786Y-72055197D01*
X162272300Y-72247674D01*
X162272300Y-72452324D01*
X162302786Y-72644801D01*
X162302787Y-72644808D01*
X162304313Y-72654446D01*
X162367549Y-72849066D01*
X162460453Y-73031398D01*
X162460455Y-73031401D01*
X162469170Y-73043395D01*
X162478711Y-73070135D01*
X162492853Y-73075993D01*
X162928951Y-72639894D01*
X162990272Y-72606411D01*
X163059963Y-72611395D01*
X163115897Y-72653266D01*
X163124012Y-72665570D01*
X163135411Y-72685313D01*
X163237087Y-72786989D01*
X163256821Y-72798382D01*
X163305035Y-72848947D01*
X163318259Y-72917554D01*
X163292291Y-72982419D01*
X163282501Y-72993449D01*
X162846404Y-73429544D01*
X162846405Y-73429544D01*
X162846405Y-73429545D01*
X162890998Y-73461944D01*
X163073337Y-73554851D01*
X163267955Y-73618086D01*
X163470081Y-73650100D01*
X163674718Y-73650100D01*
X163674719Y-73650100D01*
X163867202Y-73619612D01*
X163867208Y-73619612D01*
X163868991Y-73619329D01*
X163876842Y-73618086D01*
X163876845Y-73618086D01*
X164071462Y-73554851D01*
X164253801Y-73461944D01*
X164298392Y-73429546D01*
X164298392Y-73429545D01*
X163862296Y-72993449D01*
X163828812Y-72932127D01*
X163833796Y-72862435D01*
X163875668Y-72806502D01*
X163887961Y-72798392D01*
X163907713Y-72786989D01*
X164009389Y-72685313D01*
X164020784Y-72665576D01*
X164071348Y-72617363D01*
X164139955Y-72604139D01*
X164204820Y-72630107D01*
X164215850Y-72639897D01*
X164651945Y-73075992D01*
X164651946Y-73075992D01*
X164684344Y-73031401D01*
X164777251Y-72849062D01*
X164840486Y-72654445D01*
X164840486Y-72654442D01*
X164872500Y-72452319D01*
X164872500Y-72247680D01*
X164842790Y-72060102D01*
X164842013Y-72055197D01*
X164842012Y-72055190D01*
X164842012Y-72055191D01*
X164840486Y-72045557D01*
X164840486Y-72045554D01*
X164777251Y-71850937D01*
X164777249Y-71850934D01*
X164777249Y-71850932D01*
X164684343Y-71668596D01*
X164675626Y-71656598D01*
X164666087Y-71629863D01*
X164651944Y-71624004D01*
X164215849Y-72060100D01*
X164154526Y-72093585D01*
X164084834Y-72088601D01*
X164028901Y-72046729D01*
X164020787Y-72034430D01*
X164009389Y-72014687D01*
X163907713Y-71913011D01*
X163887975Y-71901615D01*
X163839761Y-71851050D01*
X163826538Y-71782443D01*
X163852506Y-71717578D01*
X163862296Y-71706549D01*
X164298393Y-71270453D01*
X164298392Y-71270452D01*
X164279361Y-71256625D01*
X164253799Y-71238053D01*
X164216125Y-71218857D01*
X164187279Y-71198522D01*
X164177867Y-71189633D01*
X164142644Y-71129292D01*
X164145636Y-71059486D01*
X164181804Y-71005771D01*
X164188814Y-70999697D01*
X164213717Y-70982930D01*
X164216122Y-70981705D01*
X164254063Y-70962373D01*
X164419684Y-70842042D01*
X164564442Y-70697284D01*
X164684773Y-70531663D01*
X164777714Y-70349257D01*
X164840975Y-70154558D01*
X164857474Y-70050385D01*
X164873000Y-69952364D01*
X164873000Y-69747635D01*
X164848741Y-69594477D01*
X164840975Y-69545442D01*
X164836353Y-69531218D01*
X164781990Y-69363903D01*
X164781989Y-69363902D01*
X164777714Y-69350743D01*
X164777714Y-69350742D01*
X164708020Y-69213962D01*
X164687703Y-69174087D01*
X164684774Y-69168338D01*
X164635554Y-69100593D01*
X164564442Y-69002716D01*
X164419684Y-68857958D01*
X164254063Y-68737627D01*
X164071657Y-68644685D01*
X164071654Y-68644684D01*
X164071653Y-68644683D01*
X164071650Y-68644682D01*
X164071630Y-68644675D01*
X163876961Y-68581425D01*
X163876962Y-68581425D01*
X163725312Y-68557406D01*
X163674764Y-68549400D01*
X163674763Y-68549400D01*
X163470037Y-68549400D01*
X163470036Y-68549400D01*
X163429596Y-68555805D01*
X163267836Y-68581425D01*
X163073168Y-68644675D01*
X163073149Y-68644682D01*
X163073148Y-68644682D01*
X162890732Y-68737629D01*
X162796242Y-68806280D01*
X162736983Y-68849334D01*
X162729608Y-68853464D01*
X162575864Y-69007208D01*
X162571734Y-69014583D01*
X162528680Y-69073842D01*
X162460029Y-69168332D01*
X162460027Y-69168336D01*
X162383786Y-69317966D01*
X162367082Y-69350748D01*
X162367082Y-69350749D01*
X162367075Y-69350768D01*
X162303825Y-69545436D01*
X162271800Y-69747635D01*
X145364500Y-69747635D01*
X145364500Y-68187990D01*
X145359699Y-68140995D01*
X148299499Y-68140995D01*
X148326418Y-68276322D01*
X148326421Y-68276332D01*
X148326929Y-68277559D01*
X148326930Y-68277563D01*
X148379217Y-68403797D01*
X148379222Y-68403806D01*
X148379232Y-68403823D01*
X148455886Y-68518543D01*
X148455887Y-68518544D01*
X148455892Y-68518550D01*
X148553448Y-68616106D01*
X148553454Y-68616111D01*
X148553458Y-68616114D01*
X148668182Y-68692771D01*
X148668195Y-68692778D01*
X148795667Y-68745578D01*
X148795672Y-68745580D01*
X148795676Y-68745580D01*
X148795677Y-68745581D01*
X148839957Y-68754389D01*
X148931002Y-68772500D01*
X149068995Y-68772500D01*
X149068996Y-68772500D01*
X149114518Y-68763444D01*
X149160041Y-68754389D01*
X149204328Y-68745580D01*
X149331811Y-68692775D01*
X149446542Y-68616114D01*
X149544114Y-68518542D01*
X149620775Y-68403811D01*
X149673580Y-68276328D01*
X149700500Y-68140995D01*
X155099499Y-68140995D01*
X155126418Y-68276322D01*
X155126421Y-68276332D01*
X155126929Y-68277559D01*
X155126930Y-68277563D01*
X155179217Y-68403797D01*
X155179222Y-68403806D01*
X155179232Y-68403823D01*
X155255886Y-68518543D01*
X155255887Y-68518544D01*
X155255892Y-68518550D01*
X155353448Y-68616106D01*
X155353454Y-68616111D01*
X155353458Y-68616114D01*
X155468182Y-68692771D01*
X155468195Y-68692778D01*
X155595667Y-68745578D01*
X155595672Y-68745580D01*
X155595676Y-68745580D01*
X155595677Y-68745581D01*
X155639957Y-68754389D01*
X155731002Y-68772500D01*
X155868995Y-68772500D01*
X155868996Y-68772500D01*
X155914518Y-68763444D01*
X155960041Y-68754389D01*
X156004328Y-68745580D01*
X156131811Y-68692775D01*
X156246542Y-68616114D01*
X156344114Y-68518542D01*
X156420775Y-68403811D01*
X156473580Y-68276328D01*
X156484060Y-68223642D01*
X168625500Y-68223642D01*
X168625500Y-68428356D01*
X168655238Y-68616114D01*
X168657522Y-68630534D01*
X168697765Y-68754389D01*
X168720782Y-68825225D01*
X168784690Y-68950652D01*
X168811215Y-69002710D01*
X168811216Y-69002710D01*
X168811217Y-69002713D01*
X168813714Y-69007612D01*
X168813716Y-69007615D01*
X168934028Y-69173213D01*
X169078786Y-69317971D01*
X169233749Y-69430556D01*
X169244390Y-69438287D01*
X169360607Y-69497503D01*
X169421154Y-69528353D01*
X169422043Y-69528824D01*
X169422249Y-69529025D01*
X169425629Y-69530662D01*
X169427636Y-69531659D01*
X169431401Y-69532721D01*
X169470546Y-69545440D01*
X169621465Y-69594477D01*
X169722557Y-69610488D01*
X169823648Y-69626500D01*
X169823649Y-69626500D01*
X170028351Y-69626500D01*
X170028352Y-69626500D01*
X170230534Y-69594477D01*
X170425219Y-69531220D01*
X170607610Y-69438287D01*
X170700590Y-69370732D01*
X170773213Y-69317971D01*
X170773213Y-69317969D01*
X170773272Y-69317927D01*
X170774031Y-69317153D01*
X170917966Y-69173219D01*
X170917968Y-69173215D01*
X170917971Y-69173213D01*
X170970730Y-69100593D01*
X170970732Y-69100591D01*
X170994172Y-69068327D01*
X171038287Y-69007610D01*
X171131220Y-68825219D01*
X171194477Y-68630534D01*
X171226500Y-68428352D01*
X171226500Y-68223648D01*
X171194477Y-68021466D01*
X171188479Y-68003007D01*
X171144506Y-67867672D01*
X171132716Y-67831386D01*
X171131658Y-67827635D01*
X171130658Y-67825620D01*
X171128870Y-67821930D01*
X171127933Y-67820329D01*
X171087099Y-67740189D01*
X171087098Y-67740187D01*
X171058170Y-67683413D01*
X171038287Y-67644390D01*
X171024529Y-67625454D01*
X171024527Y-67625451D01*
X171024527Y-67625450D01*
X170917972Y-67478787D01*
X170773211Y-67334026D01*
X170618209Y-67221413D01*
X170618205Y-67221410D01*
X170607613Y-67213715D01*
X170607612Y-67213714D01*
X170607610Y-67213713D01*
X170579171Y-67199222D01*
X170550654Y-67184691D01*
X170550653Y-67184691D01*
X170425223Y-67120781D01*
X170230534Y-67057522D01*
X170230532Y-67057521D01*
X170230530Y-67057521D01*
X170230529Y-67057520D01*
X170055995Y-67029878D01*
X170039409Y-67027251D01*
X170028354Y-67025500D01*
X170028352Y-67025500D01*
X169823648Y-67025500D01*
X169823647Y-67025500D01*
X169799327Y-67029351D01*
X169799326Y-67029350D01*
X169621468Y-67057521D01*
X169426777Y-67120780D01*
X169426764Y-67120786D01*
X169244397Y-67213708D01*
X169244385Y-67213715D01*
X169078787Y-67334027D01*
X169078784Y-67334029D01*
X168934029Y-67478784D01*
X168934027Y-67478787D01*
X168813715Y-67644385D01*
X168813708Y-67644397D01*
X168720786Y-67826764D01*
X168720780Y-67826777D01*
X168657521Y-68021468D01*
X168625500Y-68223642D01*
X156484060Y-68223642D01*
X156500500Y-68140993D01*
X156500500Y-68003007D01*
X156500500Y-68003004D01*
X156500500Y-68003001D01*
X156473340Y-67866468D01*
X156471254Y-67862056D01*
X156420780Y-67740199D01*
X156420779Y-67740197D01*
X156420778Y-67740195D01*
X156420771Y-67740182D01*
X156344114Y-67625458D01*
X156344111Y-67625454D01*
X156344109Y-67625451D01*
X156246550Y-67527892D01*
X156246544Y-67527887D01*
X156246543Y-67527886D01*
X156131823Y-67451232D01*
X156131822Y-67451231D01*
X156131817Y-67451228D01*
X156131804Y-67451221D01*
X156131797Y-67451217D01*
X156004354Y-67398429D01*
X156004340Y-67398424D01*
X156004332Y-67398421D01*
X156004322Y-67398418D01*
X156004319Y-67398417D01*
X156004315Y-67398416D01*
X155868998Y-67371500D01*
X155868995Y-67371500D01*
X155868993Y-67371500D01*
X155731007Y-67371500D01*
X155731005Y-67371500D01*
X155731000Y-67371500D01*
X155595683Y-67398416D01*
X155595677Y-67398418D01*
X155595667Y-67398421D01*
X155595662Y-67398422D01*
X155595644Y-67398429D01*
X155468201Y-67451217D01*
X155468192Y-67451222D01*
X155468175Y-67451232D01*
X155353455Y-67527886D01*
X155353454Y-67527887D01*
X155353448Y-67527892D01*
X155255892Y-67625448D01*
X155255890Y-67625451D01*
X155179232Y-67740175D01*
X155179219Y-67740197D01*
X155179218Y-67740200D01*
X155126429Y-67867644D01*
X155126416Y-67867683D01*
X155099500Y-68003000D01*
X155099500Y-68003004D01*
X155099500Y-68003007D01*
X155099500Y-68140993D01*
X155099500Y-68140995D01*
X155099499Y-68140995D01*
X149700500Y-68140995D01*
X149700500Y-68140993D01*
X149700500Y-68003007D01*
X149700500Y-68003004D01*
X149700500Y-68003001D01*
X149673340Y-67866468D01*
X149671254Y-67862056D01*
X149620780Y-67740199D01*
X149620779Y-67740197D01*
X149620778Y-67740195D01*
X149620771Y-67740182D01*
X149544114Y-67625458D01*
X149544111Y-67625454D01*
X149544109Y-67625451D01*
X149446550Y-67527892D01*
X149446544Y-67527887D01*
X149446543Y-67527886D01*
X149331823Y-67451232D01*
X149331822Y-67451231D01*
X149331817Y-67451228D01*
X149331804Y-67451221D01*
X149331797Y-67451217D01*
X149204354Y-67398429D01*
X149204340Y-67398424D01*
X149204332Y-67398421D01*
X149204322Y-67398418D01*
X149204319Y-67398417D01*
X149204315Y-67398416D01*
X149068998Y-67371500D01*
X149068995Y-67371500D01*
X149068993Y-67371500D01*
X148931007Y-67371500D01*
X148931005Y-67371500D01*
X148931000Y-67371500D01*
X148795683Y-67398416D01*
X148795677Y-67398418D01*
X148795667Y-67398421D01*
X148795662Y-67398422D01*
X148795644Y-67398429D01*
X148668201Y-67451217D01*
X148668192Y-67451222D01*
X148668175Y-67451232D01*
X148553455Y-67527886D01*
X148553454Y-67527887D01*
X148553448Y-67527892D01*
X148455892Y-67625448D01*
X148455890Y-67625451D01*
X148379232Y-67740175D01*
X148379219Y-67740197D01*
X148379218Y-67740200D01*
X148326429Y-67867644D01*
X148326416Y-67867683D01*
X148299500Y-68003000D01*
X148299500Y-68003004D01*
X148299500Y-68003007D01*
X148299500Y-68140993D01*
X148299500Y-68140995D01*
X148299499Y-68140995D01*
X145359699Y-68140995D01*
X145359699Y-68140993D01*
X145357582Y-68120268D01*
X145353999Y-68085203D01*
X145340793Y-68045350D01*
X145298814Y-67918665D01*
X145206712Y-67769344D01*
X145082656Y-67645288D01*
X144933335Y-67553186D01*
X144775266Y-67500807D01*
X144772440Y-67499639D01*
X144766797Y-67497999D01*
X144664026Y-67487500D01*
X144664017Y-67487500D01*
X144664010Y-67487500D01*
X142863990Y-67487500D01*
X142863982Y-67487500D01*
X142863974Y-67487500D01*
X142759495Y-67498174D01*
X142753912Y-67500416D01*
X142678669Y-67525349D01*
X142594679Y-67553180D01*
X142594666Y-67553184D01*
X142445340Y-67645290D01*
X142321289Y-67769341D01*
X142321286Y-67769345D01*
X142229188Y-67918658D01*
X142229187Y-67918662D01*
X142229186Y-67918665D01*
X142187211Y-68045338D01*
X142184300Y-68054122D01*
X142175852Y-68067068D01*
X142174365Y-68081629D01*
X142173971Y-68084620D01*
X142173965Y-68085536D01*
X142163500Y-68187982D01*
X137468426Y-68187982D01*
X137364810Y-68045367D01*
X137364798Y-68045350D01*
X137364794Y-68045345D01*
X137364791Y-68045342D01*
X137364788Y-68045338D01*
X137186660Y-67867210D01*
X137186655Y-67867206D01*
X137186654Y-67867205D01*
X137186649Y-67867201D01*
X137011846Y-67740200D01*
X136993445Y-67726831D01*
X136993443Y-67726830D01*
X136982848Y-67719132D01*
X136982847Y-67719131D01*
X136982845Y-67719130D01*
X136912747Y-67683413D01*
X136758383Y-67604760D01*
X136674487Y-67577500D01*
X136518787Y-67526910D01*
X136336256Y-67498000D01*
X136269962Y-67487500D01*
X136269961Y-67487500D01*
X136018039Y-67487500D01*
X136018038Y-67487500D01*
X135951751Y-67497999D01*
X135951738Y-67498001D01*
X135769212Y-67526910D01*
X135769209Y-67526910D01*
X135529619Y-67604759D01*
X135529616Y-67604760D01*
X135375253Y-67683413D01*
X135305147Y-67719134D01*
X135101367Y-67867188D01*
X135101338Y-67867210D01*
X134923210Y-68045338D01*
X134923188Y-68045367D01*
X134775134Y-68249147D01*
X134775132Y-68249151D01*
X134660760Y-68473616D01*
X134660759Y-68473618D01*
X134660759Y-68473619D01*
X134582910Y-68713209D01*
X134582910Y-68713212D01*
X134561050Y-68851228D01*
X134561049Y-68851236D01*
X134559985Y-68857958D01*
X134543500Y-68962038D01*
X128135507Y-68962038D01*
X128205220Y-68825219D01*
X128268477Y-68630534D01*
X128300500Y-68428352D01*
X128300500Y-68223648D01*
X128268477Y-68021466D01*
X128262479Y-68003007D01*
X128218506Y-67867672D01*
X128206716Y-67831386D01*
X128205658Y-67827635D01*
X128204658Y-67825620D01*
X128202870Y-67821930D01*
X128201933Y-67820329D01*
X128161099Y-67740189D01*
X128161098Y-67740187D01*
X128132170Y-67683413D01*
X128112287Y-67644390D01*
X128098529Y-67625454D01*
X128098527Y-67625451D01*
X128098527Y-67625450D01*
X127991972Y-67478787D01*
X127847211Y-67334026D01*
X127692209Y-67221413D01*
X127692205Y-67221410D01*
X127681613Y-67213715D01*
X127681612Y-67213714D01*
X127681610Y-67213713D01*
X127653171Y-67199222D01*
X127624654Y-67184691D01*
X127624653Y-67184691D01*
X127499223Y-67120781D01*
X127304534Y-67057522D01*
X127304532Y-67057521D01*
X127304530Y-67057521D01*
X127304529Y-67057520D01*
X127129995Y-67029878D01*
X127113409Y-67027251D01*
X127102354Y-67025500D01*
X127102352Y-67025500D01*
X126897648Y-67025500D01*
X126897647Y-67025500D01*
X126873327Y-67029351D01*
X126873326Y-67029350D01*
X126695468Y-67057521D01*
X126500777Y-67120780D01*
X126500764Y-67120786D01*
X126318397Y-67213708D01*
X126318385Y-67213715D01*
X126152787Y-67334027D01*
X126152784Y-67334029D01*
X126008029Y-67478784D01*
X126008027Y-67478787D01*
X125887715Y-67644385D01*
X125887708Y-67644397D01*
X125794786Y-67826764D01*
X125794780Y-67826777D01*
X125731521Y-68021468D01*
X125699500Y-68223642D01*
X124452500Y-68223642D01*
X124452500Y-66174329D01*
X124457523Y-66139393D01*
X124461927Y-66124395D01*
X124499672Y-66065644D01*
X124501041Y-66064457D01*
X124555920Y-66036977D01*
X124563479Y-66035333D01*
X124589832Y-66032500D01*
X172077670Y-66032500D01*
X172112606Y-66037523D01*
G37*
%TD.AperFunction*%
%TD*%
M02*
